<svg xmlns="http://www.w3.org/2000/svg" viewBox="0 0 547.52 547.52"><title>gophercon-logo-main</title><path d="M173.68,493c11.22-19.94,22.69-39.79,36.68-57.88,2.13-2.76,4.41-5.69,4.72-9.16.46-5.2-3.55-9.6-7.27-13.26-2.61-2.57-6.86-7.34-10.49-6.81a7.48,7.48,0,0,0-3.55,1.34c-6.26,3.86-15.4,17.4-18.57,14.19-7.18-10.91,6.46-18.17,5.12-27.5s-9-18.48-18.38-18.08c-5.65.24-10.58,3.72-15.15,7.06L87.66,426.14c-2.55,1.86-5.36,4.25-5.24,7.4.25,6.35,1.94,13.39,6.42,17.9s6.44,6,12.15,8.82a10.12,10.12,0,0,0,4.61,1.38c2-.05,3.78-1.24,5.42-2.39,10.68-7.43,21.57-18.87,32.25-26.31,0,.39,2.45.86,2.22,3.29-.85,9-5.43,29.9-5.69,38.11a12.94,12.94,0,0,0,.73,5.89,12.32,12.32,0,0,0,2.79,3.5c4.49,4.36,12.76,7.71,19.77,11C165.86,496,172.62,494.91,173.68,493Z" transform="translate(-0.72 -1.25)" style="fill:#e84661"/><path d="M386.76,501.55a47.56,47.56,0,0,1-38.95,14.29c-10.36-1-30.77-9.16-30.38-22.31.14-4.83,21.76-16.41,24.56-12.67,3.91,5.21,9.54,5.26,13,4.88,18.35-2,14.09-26.47,7.18-35-4.62-5.7-17.11-14.64-24-7.86-5.18,5.1-4.76,14.56-6,21.19-1,5.51-16.34,8.62-21.37,6.2s-6.76-25.34,0-38.83c8-15.95,32.91-25.11,50.07-20.2s30.76,19.13,37.47,35.68C403,458.05,402.59,484.75,386.76,501.55Z" transform="translate(-0.72 -1.25)" style="fill:#e84661"/><path d="M494.52,377.46c-5.16-5.42-12.75-8.74-18.8-13.13-6.31-4.58-12.4-9.46-18.6-14.18a187.79,187.79,0,0,0-19.86-13.6c-6-3.47-14.17-8.28-21.2-9-5.9-.63-10.9,10-13.28,14.36-1.28,2.33-6.14,10-4.81,12.78a3.75,3.75,0,0,0,1.09,1.2c1.85,1.5,16.78,9.37,13.22,12.2s-20.49,2.51-29.74,2.54c0,0-10.65,13.23-17.41,21.66-1.67,2.08-3.44,4.48-3.13,7.14l1.59.39c12.93,3.44,26.94-1.49,39.79-3.21a1.39,1.39,0,0,1,1.07.15,1.2,1.2,0,0,1,.36.76c.46,2.63-1.35,5.06-2.95,7.2-8.15,10.93-5.51,23.61,2.68,33.85,7,8.74,16.86,15.45,27.88,17.41,23.31,4.14,38.66-15.32,49.65-33,3.29-5.29,6.3-10.76,9.18-16.29,2.56-4.89,6.66-10.5,7.82-15.92C500.09,386,497.88,381,494.52,377.46Zm-40.81,32.26-4.11,6.89a6.67,6.67,0,0,1-1.62,2.05c-2,1.44-4.7.4-6.87-.68-2.84-1.41-6.08-3.39-6.24-6.56a8.94,8.94,0,0,1,1.32-4.37q4.95-9.75,10.53-19.17c6,1.37,10.24,3.39,13.54,8.58C456.54,405.92,453.71,409.72,453.71,409.72Z" transform="translate(-0.72 -1.25)" style="fill:#e84661"/><path d="M520.9,261c4.61,5.54.23,57.35-6.82,86.83-1,4.28-.91,8.56-3.23,12.48-.74,1.24-1.66,2.32-3.23,2.32a8.05,8.05,0,0,1-2.82-.7c-6.11-2.33-12.27-4.69-17.76-8.24-2.05-1.33-4.1-3-4.63-5.52-.59-2.76,1-5.32,1.45-8l2.6-14.23,2.46-13.44c.27-1.46,3.27-12.81,2.46-13.44a3.37,3.37,0,0,0-5.1,2c.06-.13-1.34,7.75-1.28,7.62-3,7.25-4.18,15.07-5.82,22.69-1.06,4.92-2.4,15.25-9.34,14.77A13.93,13.93,0,0,1,464,344c-4.11-2.35-10.34-5.41-13.55-8.92-5.18-5.67,6.49-27.27,8.32-34.06a11.72,11.72,0,0,0,.57-4.79,4.24,4.24,0,0,0-2.88-3.57c-1.58-.38-2.07.55-2.46,2.13-1.9,7.62-3.51,15.63-7.08,22.7-5.63,11.13-15,8-23.79.54a7.58,7.58,0,0,1-2.47-3.18c-.62-1.86.05-3.87.72-5.71,6.4-17.55,11.64-49.36,19.19-52.66s17-2.44,26.43-3.52c8.7-1,17.44-2,26.19-1.59,3.08.14,6.15.45,9.22.77C508.13,252.73,516.29,255.49,520.9,261Z" transform="translate(-0.72 -1.25)" style="fill:#e84661"/><path d="M519.51,216.09c-.28-6.61-5-16.73-13.15-16.73-4.64,0-9.11,2.37-13.72,1.95-7-.65-11.82-7.38-14.76-13.81a14,14,0,0,1-1.61-5.72c0-6.86,8.15-10.12,13.22-14.74a19.88,19.88,0,0,0-12.78-34.58c-7.1-.21-13.72,3.34-19.88,6.89a605.08,605.08,0,0,0-55.59,36.31,12.69,12.69,0,0,0,6.18,15.9c9.92,5.1,22.9-3.08,32.83,2,7.92,4.05,9.34,16.72,2.51,22.42-4,3.35-10,4.47-12.61,9a12.2,12.2,0,0,0-1.09,7.92c1.48,9.74,5.56,13.31,15.3,14.82,9,1.4,21.64-.62,30.13-4,9.84-3.91,20.66-4.88,30.51-8.79,4-1.59,8.11-3.25,11.17-6.27S519.79,222.69,519.51,216.09Z" transform="translate(-0.72 -1.25)" style="fill:#e84661"/><path d="M350.65,52.8c-1.1-5.08-4.32-9.29-7.36-13.51-16-22.16-62.06-18.21-62.06-18.21-8.45-.58-16.38,5.1-20.75,12.36s-5.83,15.86-6.83,24.27c-1.39,11.73-2,23.89,1.72,35.1s12.7,21.33,24.34,23.38c0,0,39.47,7.24,48-1.62a55.91,55.91,0,0,0,8.55-10.92A140.16,140.16,0,0,0,348.3,75.83C350.61,68.38,352.3,60.43,350.65,52.8ZM307.82,88.1c-.75,2.79-1.76,5.91-4.37,7.17-1.89.92-4.14.57-6.17,0a16.63,16.63,0,0,1-6.34-3c-3.56-2.93-4.89-7.87-4.8-12.48s1.37-9.11,2.1-13.66,1-9.42,3.47-13.32c7.34-11.5,17.89-3.61,20,4.21C314,65.65,310.14,79.51,307.82,88.1Z" transform="translate(-0.72 -1.25)" style="fill:#e84661"/><path d="M218.76,47.2c-9.27-6.56-20.53-8.45-31.53-6.91A51.37,51.37,0,0,0,155.9,56.8c-2.9,3.3-5.46,7.33-6.24,11.71-.94,5.27-6.09,20.29,9.89,52.35,3.36,6.74,11.19,16.47,17.87,20,13.3,7,24.12,7.78,34.18,6.81,7-.68,15.8-5.4,21.83-8.91s10.44-9.52,13.81-15.71c4.49-8.25,3.74-16.72,2.09-24.51s-7.49-14.18-11.26-21.19c-1-1.79-1.94-4.33-7.86-3.21-6.93,1.31-24.07,6.57-24.54,11.92-.49,5.61,6.78,23,12.23,17.17,3.41-3.63,7.14,1.77,5.54,3.72a64.39,64.39,0,0,1-8.68,6c-3.34,1.83-6.8,3.69-10.6,4-18.69,1.7-31-26.9-21.4-40.13,2.22-3.06,7.62-8.32,11.61-7.8,2.34.3,6.81,2.62,7.22,4.94.76,4.22,6.85.74,11.08-1.23,4.41-2.05,9.43-4.15,13.23-6.16S221.31,49,218.76,47.2Z" transform="translate(-0.72 -1.25)" style="fill:#e84661"/><path d="M298.55,469.08c.39-8.19.71-16.81-2.71-24.08-5-10.61-18-18.21-29-18.92-11.21-.72-24.22-6.38-35.22-1.16a44.18,44.18,0,0,0-11.49,8.15c-3.49,3.33-5.56,8-7.49,12.58-5.16,12.21-10.13,24.84-11,38.17s3,27.66,12.71,35.76c6.85,5.69,15.69,7.71,24.24,9.37,11.22,2.19,22.89,4,34,.9s21.53-12.46,23-24.71C297.15,492.53,297.94,481.78,298.55,469.08Zm-32.21,9.61c-2.55,10.52-1.23,17.82-14.86,16.64s-16.47-13.53-14.1-25.75,9.48-16.32,13.76-15.29C264.77,457.58,268.89,468.17,266.34,478.69Z" transform="translate(-0.72 -1.25)" style="fill:#e84661"/><path d="M456,101.78c-.76-4.76-6.46-8.88-7.73-10.26a126.1,126.1,0,0,0-47.11-32.23c-8.75-3.4-20.53-8.29-26.13-.75-16.11,21.67-44.25,60.4-43.07,68.52s17.49,15.45,24.52,10.26,13.79-11.35,17-9.09,21.08,14.71,32.37,19.07c6.24,2.41,13.09,4.33,19.56,2.64,7.83-2,13.37-8.85,18.09-15.42,3.23-4.5,6.37-9.14,8.24-14.35C452.89,117.07,457.13,108.74,456,101.78Zm-43.44,11.29c-9.86-4-22.47-9.79-20.68-14.75,0,0,3.13-12.31,9-11.23s26.9,13.16,25.1,17.76S422.44,117.07,412.59,113.07Z" transform="translate(-0.72 -1.25)" style="fill:#e84661"/><path d="M468.05,81.43A273.83,273.83,0,0,0,107.56,58q1.86,1.72,3.69,3.47A268.78,268.78,0,0,1,543.23,275a268.76,268.76,0,0,1-458.8,190,269.08,269.08,0,0,1-45.6-319.51,31.15,31.15,0,0,1-2.89-5.12,273.82,273.82,0,0,0,432.1,328.17,273.76,273.76,0,0,0,0-387.15Z" transform="translate(-0.72 -1.25)" style="fill:#e84661"/><path d="M127.12,373.09a33,33,0,0,1-30.21-19.69,194.5,194.5,0,0,1,.39-157.66,33,33,0,0,1,60.25,26.94,128.39,128.39,0,0,0-.25,104.07,33,33,0,0,1-30.17,46.33Z" transform="translate(-0.72 -1.25)" style="fill:#36bfbe"/><path d="M78,46.48l-.07.17h0C67,38.9,53.63,32.71,40,32.71q-1.45,0-2.9.09A32.81,32.81,0,0,0,11.77,47.34c-5.91,9.18-6.68,21.91,1.91,29.73A34,34,0,0,1,29,73.6a39.45,39.45,0,0,1,12.09,1.83,23.89,23.89,0,0,0-3.95-.33C22.44,75.1,10.39,88.9,13.11,104a25.56,25.56,0,0,0,17.19,19.3,5.1,5.1,0,0,0,1.54.31,2.23,2.23,0,0,0,.71-.11A3.94,3.94,0,0,0,34.26,122a55.39,55.39,0,0,1,9.12-9.88c3.52-2.77,7.82-4.76,12.29-4.76h0c-4.2,0-7.72,6-9.45,9.14a21.77,21.77,0,0,0,17.25,32.85q1,.09,2,.09a22.65,22.65,0,0,0,22-27.83,231.12,231.12,0,0,1,85.63,54.23A271.67,271.67,0,0,0,78,46.48Z" transform="translate(-0.72 -1.25)" style="fill:#36bfbe"/><path d="M122,353.36a15.27,15.27,0,0,1-5.29.46A13.8,13.8,0,0,1,112,352.5a12.6,12.6,0,0,1-3.87-2.91,14.27,14.27,0,0,1-2.64-4.19,17.63,17.63,0,0,1-1.31-5.23,12.39,12.39,0,0,1,.5-4.84,10.71,10.71,0,0,1,2.43-4.09,12.74,12.74,0,0,1,4.53-3,14.44,14.44,0,0,1,9.47-.38l21.46,6.71-6.6-16,6.61-2.72,10.33,25.13-6.19,2.55-26.61-8.31a7.8,7.8,0,0,0-5.17.09,5.78,5.78,0,0,0-3,2.78,5.39,5.39,0,0,0,.09,4.67,5.69,5.69,0,0,0,3.06,3.17,8,8,0,0,0,5.2.18Z" transform="translate(-0.72 -1.25)" style="fill:#fff"/><path d="M124,281.35a13.22,13.22,0,0,1,5.69.42,12.43,12.43,0,0,1,4.48,2.44,12.87,12.87,0,0,1,3.06,4,15.06,15.06,0,0,1,1.52,4.92,14.74,14.74,0,0,1-.23,5.11,12.93,12.93,0,0,1-2,4.58,12.42,12.42,0,0,1-3.71,3.49,13.21,13.21,0,0,1-5.4,1.84l-19.41,2.49a13.16,13.16,0,0,1-5.72-.41,12.88,12.88,0,0,1-4.48-2.44,12.69,12.69,0,0,1-3.09-3.93,14.77,14.77,0,0,1-1.51-4.88,15,15,0,0,1,.22-5.14,12.62,12.62,0,0,1,2-4.62,12.91,12.91,0,0,1,3.71-3.49,13.17,13.17,0,0,1,5.43-1.84Zm-18.3,9.88a6.52,6.52,0,0,0-4.55,2.25,5.92,5.92,0,0,0-1.09,4.56,5.81,5.81,0,0,0,2.21,4.11,6.59,6.59,0,0,0,5,1l19-2.44a6.59,6.59,0,0,0,4.55-2.22,5.82,5.82,0,0,0,1.1-4.53,5.92,5.92,0,0,0-2.21-4.14,6.51,6.51,0,0,0-5-1Z" transform="translate(-0.72 -1.25)" style="fill:#fff"/><path d="M138.4,259.2l-36.7-5.05,3.58,6.86-7.79-1.07-3.83-7.42.95-6.89,44.82,6.17Z" transform="translate(-0.72 -1.25)" style="fill:#fff"/><path d="M147.26,225l-3.15,7.42-29-29.2-4.35,10.23,5.92,2.52-2.92,6.88-12.5-5.31,10.58-24.89,6.22,2.64Z" transform="translate(-0.72 -1.25)" style="fill:#fff"/><path d="M66.13,396.89a15.06,15.06,0,0,0,.69,4.94,17.28,17.28,0,0,0,1.77,3.89q1.75,2.75,3.59,3.22a4.21,4.21,0,0,0,3.43-.55A3.33,3.33,0,0,0,76.93,407a3.85,3.85,0,0,0,.25-2,12.42,12.42,0,0,0-.67-2.77q-.55-1.58-1.43-3.73a33.11,33.11,0,0,1-1.25-3.73,10.5,10.5,0,0,1-.34-3.76,8.34,8.34,0,0,1,1.23-3.58,10.34,10.34,0,0,1,3.38-3.2,9.69,9.69,0,0,1,4.47-1.57,10.14,10.14,0,0,1,4.42.64,13.3,13.3,0,0,1,4,2.47,18,18,0,0,1,3.35,3.95,26.45,26.45,0,0,1,3,6.65,17.43,17.43,0,0,1,.43,7.85l-6-.57a13.49,13.49,0,0,0-.12-5.85,17.92,17.92,0,0,0-2.28-5.26,8.38,8.38,0,0,0-3.59-3.37,4.09,4.09,0,0,0-4,.41,3.67,3.67,0,0,0-1.87,3.09,12.14,12.14,0,0,0,1.25,5,43.82,43.82,0,0,1,1.71,4.26,13.05,13.05,0,0,1,.74,4.21,8.21,8.21,0,0,1-1,3.92,9.63,9.63,0,0,1-3.49,3.45,9.51,9.51,0,0,1-8.66,1.05,11.73,11.73,0,0,1-3.71-2.23,15.78,15.78,0,0,1-2.93-3.43A25.7,25.7,0,0,1,61,403.08a16.91,16.91,0,0,1-.81-6Z" transform="translate(-0.72 -1.25)" style="fill:#36bfbe"/><path d="M85.84,375.72,54.28,392l-2.82-5.49L83,370.23Z" transform="translate(-0.72 -1.25)" style="fill:#36bfbe"/><path d="M72.28,344.91,60.85,361.11l-5.77,7.55.1.12,22.91-8.9,2.23,5.75L47.25,378.49l-2.07-5.32,10.47-14.74,6.76-9.08-.13-.06-22.91,8.9-2.24-5.75,33.09-12.86Z" transform="translate(-0.72 -1.25)" style="fill:#36bfbe"/><path d="M61,324.42a6.81,6.81,0,0,0-1.21-2.62,7.08,7.08,0,0,0-2-1.83,7.73,7.73,0,0,0-2.6-.94,7,7,0,0,0-2.81.08l-1.49.35,1.67,7.2-5.17,1.2-3.07-13.21,6.81-1.58a12.47,12.47,0,0,1,5.17-.15,12.64,12.64,0,0,1,4.55,1.8,12.33,12.33,0,0,1,3.54,3.51,14.53,14.53,0,0,1,2.11,4.91,15,15,0,0,1,.3,5.93A11.4,11.4,0,0,1,65,333.71,11.52,11.52,0,0,1,61.33,337a17.34,17.34,0,0,1-5,2l-8.84,2.05a16.53,16.53,0,0,1-5.15.38,12.32,12.32,0,0,1-4.74-1.36,11.47,11.47,0,0,1-3.8-3.28,14,14,0,0,1-2.37-5.37,13.36,13.36,0,0,1,.42-8.21,12.16,12.16,0,0,1,4.81-5.78l3.55,5.14a6.7,6.7,0,0,0-2.77,3.08,6.91,6.91,0,0,0-.29,4.49A7,7,0,0,0,38.43,333a5.77,5.77,0,0,0,2.09,1.66,7.27,7.27,0,0,0,2.59.66,9.12,9.12,0,0,0,2.73-.21L55.17,333a9.27,9.27,0,0,0,2.63-1.06,7.35,7.35,0,0,0,2.09-1.82,6.6,6.6,0,0,0,1.2-2.5A6.71,6.71,0,0,0,61,324.42Z" transform="translate(-0.72 -1.25)" style="fill:#36bfbe"/><path d="M60.68,284.91l-7.57,3.51,1.2,13.1,8.08,2.13L63,310.1,26.41,300,26,295l34.13-16.58Zm-19.58,8.8-7,3v.15l7.32,1.64,7.53,1.72-.87-9.5Z" transform="translate(-0.72 -1.25)" style="fill:#36bfbe"/><path d="M37.14,249.95a10.16,10.16,0,0,1,4,1,10.57,10.57,0,0,1,3.31,2.52,11.64,11.64,0,0,1,2.21,3.77,12.22,12.22,0,0,1,.68,4.78l-.36,8.1,13.6.6-.27,6.16-35.46-1.57.61-13.81a15.06,15.06,0,0,1,.92-4.66,11.55,11.55,0,0,1,2.26-3.75,9.53,9.53,0,0,1,3.58-2.45A11.69,11.69,0,0,1,37.14,249.95Zm-.43,6.31a4.87,4.87,0,0,0-4.12,1.45,6.67,6.67,0,0,0-1.49,4.22l-.33,7.49,10.65.47.34-7.69a5.53,5.53,0,0,0-1.39-4.27A5.23,5.23,0,0,0,36.71,256.26Z" transform="translate(-0.72 -1.25)" style="fill:#36bfbe"/><path d="M28.76,231.31a14.19,14.19,0,0,1,2-5.24,12.4,12.4,0,0,1,3.5-3.62,12,12,0,0,1,4.66-1.86,15.36,15.36,0,0,1,5.46,0l8.94,1.6a15.8,15.8,0,0,1,5.36,1.92,12,12,0,0,1,3.72,3.39,11.7,11.7,0,0,1,1.93,4.59,15.08,15.08,0,0,1,0,5.54,14.35,14.35,0,0,1-2.1,5.53,11.59,11.59,0,0,1-3.64,3.55,12.38,12.38,0,0,1-4.67,1.65,16.18,16.18,0,0,1-5.21-.1l-8.94-1.6a16,16,0,0,1-4.88-1.7A12.4,12.4,0,0,1,31,241.82a11.6,11.6,0,0,1-2.19-4.59A14.37,14.37,0,0,1,28.76,231.31Zm5.72,1a7.23,7.23,0,0,0,.06,3.16A6.21,6.21,0,0,0,35.79,238a7.14,7.14,0,0,0,2.1,1.7,8.61,8.61,0,0,0,2.58.9l9.39,1.68a9.21,9.21,0,0,0,2.86.07,7.39,7.39,0,0,0,2.61-.86,6.35,6.35,0,0,0,2.06-1.84,7,7,0,0,0,1.17-2.94,7.09,7.09,0,0,0-.06-3,6.32,6.32,0,0,0-1.19-2.45,7.23,7.23,0,0,0-2.12-1.78,9,9,0,0,0-2.88-1l-9.39-1.68a8.25,8.25,0,0,0-2.9,0,7.05,7.05,0,0,0-2.53,1,6.53,6.53,0,0,0-1.94,1.89A7.13,7.13,0,0,0,34.48,232.36Z" transform="translate(-0.72 -1.25)" style="fill:#36bfbe"/><path d="M73.07,203l-15.83,1.37-2,6.26,13.93,4.5L67.25,221,33.47,210.1l4.65-14.36a12.44,12.44,0,0,1,2-3.81,10.64,10.64,0,0,1,3-2.68A9.11,9.11,0,0,1,46.85,188a10.51,10.51,0,0,1,4.31.51,9.86,9.86,0,0,1,5.1,3.61,10.86,10.86,0,0,1,2,6.14l17-1.86Zm-23.87-8.47a4.23,4.23,0,0,0-3.93.33,6.54,6.54,0,0,0-2.3,3.44l-2.45,7.57L50,208.95l2.38-7.38a6.21,6.21,0,0,0,0-4.32A4.71,4.71,0,0,0,49.19,194.54Z" transform="translate(-0.72 -1.25)" style="fill:#36bfbe"/><path d="M76.73,193.09,44.66,177.88,54.85,156.4l5.07,2.4-7.54,15.9,8.39,4,6.43-13.55,4.88,2.32L65.65,181l8.66,4.11,7.54-15.9,5.07,2.4Z" transform="translate(-0.72 -1.25)" style="fill:#36bfbe"/><path d="M175.69,298.95s-16.56,35.94-.94,80.85,68.83,47.6,89.11,44.67,44.73-16.65,72.66-43.6,41-30.35,51.18-23.88c10,6.33.39,22.66.39,22.66s16.88,3.58,25.66-10.77,1.58-26.08-8.26-29.87a24.58,24.58,0,0,0-11-1.75,26.83,26.83,0,0,0,9-19.52c.28-14.14-15.53-17.7-20-18-10.32-.79-18.36,5.16-18.36,5.16s12.17-.78,13,12.36c.66,9.91-12,17.39-29.75,15-6.68-.89-14.44-4.91-14.44-4.91" transform="translate(-0.72 -1.25)" style="fill:#dedddd"/><path d="M251.11,426.81a109.84,109.84,0,0,1-34-5.31c-21.77-7.24-36.89-21.49-43.75-41.2-15.64-45,.82-81.61,1-82a1.5,1.5,0,0,1,2.73,1.25c-.16.35-16.11,36-.88,79.73,6.63,19.07,20.72,32.31,41.87,39.34A105.83,105.83,0,0,0,263.65,423c21.12-3.05,45.29-17.59,71.83-43.19,26-25.06,40.84-31.8,53-24.07,9,5.71,4.24,18,1.91,22.74,4.53.42,15.59.21,22.07-10.36,3.67-6,4.66-11.92,2.88-17.16A17.63,17.63,0,0,0,405,340.41a23.45,23.45,0,0,0-10.27-1.66,1.5,1.5,0,0,1-1.12-2.67A25.56,25.56,0,0,0,402,317.72c.29-14.67-18.44-16.51-18.63-16.52A27.47,27.47,0,0,0,369.72,304c4.06,1.13,9.37,4.29,10,13.16a12.93,12.93,0,0,1-4.43,10.48c-5.7,5.34-15.8,7.63-27,6.14-6.86-.91-14.61-4.9-14.94-5.07a1.5,1.5,0,0,1,1.38-2.66c.08,0,7.62,3.92,14,4.76,10.33,1.38,19.52-.63,24.57-5.36a10,10,0,0,0,3.49-8.09c-.76-11.51-11-11-11.45-11a1.5,1.5,0,0,1-1-2.7,31.37,31.37,0,0,1,19.37-5.45c6.05.46,21.69,4.88,21.4,19.57a28.35,28.35,0,0,1-6.9,18,28.86,28.86,0,0,1,7.92,1.84A20.39,20.39,0,0,1,418.2,350c1.45,4.26,2.07,11.14-3.17,19.69-9.23,15.08-27.08,11.49-27.26,11.46a1.5,1.5,0,0,1-1-2.23c.09-.15,8.73-15.16.1-20.64-12.4-7.88-28.69,3.78-49.34,23.69-27,26.05-51.73,40.86-73.48,44A92,92,0,0,1,251.11,426.81Z" transform="translate(-0.72 -1.25)" style="fill:#414142"/><path d="M388.09,379.65s21.41-7.82,17.16-22.27c-4.5-15.3-35.85-13.94-35.85-13.94s26-12,21.4-28.33c-3-10.6-12.47-14.66-25.68-10.25,0,0,13-2.08,13,14.14,0,9.59-11.82,11.77-17.75,13.11S351,347.85,351,347.85l4.09,17.41s18.08-17.45,32.65-8.28C398.27,363.64,388.09,379.65,388.09,379.65Z" transform="translate(-0.72 -1.25)" style="fill:#fff"/><path d="M388.09,380.65a1,1,0,0,1-.84-1.54c.05-.09,5.52-8.8,4-15.63a8.78,8.78,0,0,0-4.06-5.65c-13.74-8.66-31.24,8-31.42,8.15a1,1,0,0,1-1.67-.49L350,348.08a1,1,0,0,1,0-.46c.37-1.54,3.83-15,10.18-16.48L361,331c6-1.34,16.13-3.6,16.13-12,0-5.05-1.3-8.72-3.86-10.92a10.92,10.92,0,0,0-8-2.23,1,1,0,0,1-.47-1.94c7.39-2.47,13.89-2.41,18.79.18,3.94,2.08,6.77,5.8,8.17,10.74,2,7.09-1.2,14.46-9.28,21.33a60.63,60.63,0,0,1-9,6.26,79.93,79.93,0,0,1,12.36,1.26c11.38,2.13,18.43,6.77,20.39,13.41,1.86,6.34-.67,12.43-7.33,17.63a42.88,42.88,0,0,1-10.45,5.87A1,1,0,0,1,388.09,380.65Zm-9.75-27.31a18.27,18.27,0,0,1,9.9,2.8,10.72,10.72,0,0,1,4.95,6.91c1.18,5.25-1.15,11.19-2.8,14.52a40.31,40.31,0,0,0,7.31-4.45c6-4.71,8.24-9.91,6.61-15.46-4.23-14.38-34.54-13.24-34.85-13.23a1,1,0,0,1-1-.76,1,1,0,0,1,.55-1.14c.25-.12,25.2-11.81,20.86-27.14-1.26-4.46-3.68-7.67-7.18-9.51-3.21-1.7-7.24-2.17-11.84-1.41a11.2,11.2,0,0,1,3.74,2.09c3,2.59,4.58,6.78,4.58,12.46,0,10-11.51,12.52-17.7,13.9l-.83.19c-4.29,1-7.62,10.77-8.62,14.77l3.65,15.54a51.33,51.33,0,0,1,9.82-6.6A28.69,28.69,0,0,1,378.34,353.34Z" transform="translate(-0.72 -1.25)" style="fill:#414142"/><path d="M392.65,381.51a26.69,26.69,0,0,1-4.87-.4,1.5,1.5,0,0,1-1-2.23c.09-.15,8.73-15.16.1-20.64-6.58-4.18-13.7-3.35-23.82,2.79a1.5,1.5,0,1,1-1.56-2.56c11.08-6.72,19.4-7.58,27-2.76,4.67,3,6.25,8.26,4.59,15.32a37.13,37.13,0,0,1-2.69,7.42c4.53.42,15.6.21,22.07-10.36,3.67-6,4.66-11.92,2.88-17.16A17.63,17.63,0,0,0,405,340.41a23.11,23.11,0,0,0-10.27-1.66,1.5,1.5,0,0,1-1.13-2.67A25.56,25.56,0,0,0,402,317.72c.29-14.67-18.44-16.51-18.63-16.52A27.34,27.34,0,0,0,369.71,304c4.06,1.12,9.38,4.29,10,13.16a12.74,12.74,0,0,1-3.6,9.65c-4.29,4.63-11.85,7.33-20.76,7.42h0a1.5,1.5,0,0,1,0-3c8.08-.08,14.86-2.44,18.59-6.46a9.81,9.81,0,0,0,2.8-7.41c-.76-11.45-11-11-11.45-11a1.5,1.5,0,0,1-1-2.7,31.37,31.37,0,0,1,19.37-5.45c6.05.46,21.69,4.88,21.4,19.57a28.35,28.35,0,0,1-6.9,18,28.86,28.86,0,0,1,7.92,1.84A20.39,20.39,0,0,1,418.2,350c1.45,4.26,2.07,11.14-3.17,19.69C408.81,379.84,398.65,381.51,392.65,381.51Z" transform="translate(-0.72 -1.25)" style="fill:#414142"/><path d="M348.6,360.44s-3.87,6.39,4.51,4.42c14.1-3.3,20.64-19.56,6.42-17.92C342.8,348.86,348.6,360.44,348.6,360.44Z" transform="translate(-0.72 -1.25)" style="fill:#dedddd"/><path d="M350.37,366.24a3.61,3.61,0,0,1-3.14-1.26c-1.08-1.49-.23-3.62.25-4.58-.53-1.32-1.71-5,.15-8.46,1.78-3.28,5.74-5.29,11.79-6,7.26-.83,8.7,2.8,9,4.4.92,5.32-5.45,13.24-15.05,15.49A13.23,13.23,0,0,1,350.37,366.24Zm-.92-5.28c-.51.84-1,2.3-.6,2.84.15.21.89.82,4,.09,8.83-2.07,14.21-9.32,13.54-13.2-.52-3-4.47-3-6.78-2.76-5.36.62-8.81,2.28-10.26,5-1.78,3.28.08,7.07.1,7.1a1,1,0,0,1,0,1Z" transform="translate(-0.72 -1.25)" style="fill:#414142"/><path d="M346.83,363.19s-.59,3.12,7.57.37c8.65-2.92,13.71-15.12.86-15.07C338.41,348.56,346.83,363.19,346.83,363.19Z" transform="translate(-0.72 -1.25)" style="fill:#fff"/><path d="M349.1,365.19a3.3,3.3,0,0,1-2.21-.62,1.66,1.66,0,0,1-.58-1.27c-.55-1-3.6-7-1.16-11.23,1.55-2.69,4.95-4.06,10.1-4.08h.09c6.39,0,7.83,2.93,8.12,4.69.69,4.14-3.56,9.55-8.91,11.36A18.29,18.29,0,0,1,349.1,365.19Zm-1.78-1.92a.63.63,0,0,0,.25.55c.39.32,1.81.9,6.67-.74s8.84-6.61,8.24-10.25c-.41-2.49-2.95-3.85-7.14-3.85h-.08c-4.77,0-7.88,1.22-9.24,3.58-2.34,4.06,1.2,10.3,1.24,10.37A.5.5,0,0,1,347.32,363.27Z" transform="translate(-0.72 -1.25)" style="fill:#414142"/><path d="M345.09,332.75c1,1,9.91-.32,14.92-.26s8.42,3.37,7.25,6.8-5.38,9.16-12.53,12.23S345.09,332.75,345.09,332.75Z" transform="translate(-0.72 -1.25)" style="fill:#dedddd"/><path d="M353.38,352.82a4.09,4.09,0,0,1-2.07-.58c-5.21-3-7-17.71-7.21-19.38a1,1,0,0,1,1.64-.87c.78.33,4.59.05,7.37-.16,2.43-.18,4.93-.36,6.91-.34a9.13,9.13,0,0,1,7.46,3.38,5.16,5.16,0,0,1,.73,4.75c-1.38,4.07-6.07,9.82-13.08,12.83A4.4,4.4,0,0,1,353.38,352.82Zm-7.11-18.72c.72,5,2.72,14.49,6,16.42a2.1,2.1,0,0,0,2,.09c7.43-3.19,11.08-9,12-11.63a3.18,3.18,0,0,0-.47-2.95A7.26,7.26,0,0,0,360,333.5c-1.87,0-4.35.16-6.74.34A52.67,52.67,0,0,1,346.27,334.1Zm-.47-2h0Z" transform="translate(-0.72 -1.25)" style="fill:#414142"/><path d="M339.16,334c1,1,9.7-.91,14.92-.26,5,.62,8.42,3.37,7.25,6.8S356,349.73,348.8,352.8,339.16,334,339.16,334Z" transform="translate(-0.72 -1.25)" style="fill:#fff"/><path d="M347.45,353.6a3.58,3.58,0,0,1-1.82-.51c-5.08-3-6.89-18.35-7-19a.5.5,0,0,1,.85-.41c.43.34,3.21.08,5.45-.13a46.3,46.3,0,0,1,9.18-.27c3.35.42,6.06,1.8,7.24,3.69a4.29,4.29,0,0,1,.42,3.77c-1.35,4-5.93,9.58-12.81,12.53A3.91,3.91,0,0,1,347.45,353.6Zm-7.69-18.82c.44,3.22,2.34,15.1,6.37,17.45a2.59,2.59,0,0,0,2.47.12c7.59-3.26,11.34-9.23,12.25-11.93a3.28,3.28,0,0,0-.32-2.92c-1-1.64-3.46-2.85-6.52-3.23a45.68,45.68,0,0,0-9,.28A27.42,27.42,0,0,1,339.77,334.78Z" transform="translate(-0.72 -1.25)" style="fill:#414142"/><path d="M218.35,412.56s2.32,9.11,14.78,11.83,25.36-7.5,25.36-7.5l-15.15-25.68Z" transform="translate(-0.72 -1.25)" style="fill:#dedddd"/><path d="M237.56,425.86a21.67,21.67,0,0,1-4.65-.49c-12.92-2.82-15.44-12.17-15.54-12.56a1,1,0,0,1,.32-1l25-21.34a1,1,0,0,1,.81-.23,1,1,0,0,1,.7.48l15.15,25.68a1,1,0,0,1-.24,1.29C258.63,418.06,248.64,425.86,237.56,425.86Zm-18.06-13c.73,2,3.82,8.34,13.84,10.53,10.25,2.24,21-4.79,23.82-6.79l-14.09-23.88Zm-1.16-.33h0Z" transform="translate(-0.72 -1.25)" style="fill:#414142"/><path d="M217.94,405.91s2.32,9.11,14.78,11.83,25.36-7.5,25.36-7.5l-15.15-25.68Z" transform="translate(-0.72 -1.25)" style="fill:#fff"/><path d="M237.17,418.72a21.24,21.24,0,0,1-4.55-.48c-12.62-2.76-15.13-12.1-15.16-12.2a.5.5,0,0,1,.16-.5l25-21.34a.5.5,0,0,1,.76.13L258.51,410a.5.5,0,0,1-.12.65C257.92,411,248.07,418.72,237.17,418.72Zm-18.65-12.63c.53,1.55,3.56,8.83,14.31,11.18,11,2.4,22.47-5.57,24.59-7.14L242.8,385.34Z" transform="translate(-0.72 -1.25)" style="fill:#414142"/><path d="M260.42,414.35s10.22,9,19.22,8.16,14.74-13.41,14.74-13.41l-17.18-8.58Z" transform="translate(-0.72 -1.25)" style="fill:#dedddd"/><path d="M278.46,423.56c-9,0-18.29-8.1-18.71-8.46a1,1,0,0,1,0-1.52l16.79-13.83a1,1,0,0,1,1.08-.12l17.17,8.58a1,1,0,0,1,.46,1.31c-.24.54-6.08,13.14-15.56,14C279.31,423.55,278.89,423.56,278.46,423.56ZM262,414.35c2.65,2.09,10.6,7.79,17.56,7.17s12-9.19,13.49-12l-15.7-7.84Z" transform="translate(-0.72 -1.25)" style="fill:#414142"/><path d="M260.36,409.22s10.22,9,19.22,8.16S294.33,404,294.33,404l-17.18-8.58Z" transform="translate(-0.72 -1.25)" style="fill:#fff"/><path d="M278.4,417.93c-8.77,0-18-8-18.37-8.34a.5.5,0,0,1,0-.76L276.83,395a.5.5,0,0,1,.54-.06l17.18,8.58a.5.5,0,0,1,.23.65c-.24.53-6,12.87-15.15,13.7Q279,417.93,278.4,417.93Zm-17.25-8.71c2.06,1.68,10.78,8.35,18.39,7.66s13-10.49,14.12-12.68L277.22,396Z" transform="translate(-0.72 -1.25)" style="fill:#414142"/><path d="M340.51,367.86s14.77-3,17.75-14.76c2.61-10.3-11-13-13.72-13.27S333.28,354,333.28,354Z" transform="translate(-0.72 -1.25)" style="fill:#dedddd"/><path d="M340.51,368.86a1,1,0,0,1-.89-.54l-7.23-13.88a1,1,0,0,1,0-1c3.31-5.56,9.31-14.87,12.2-14.63,2.38.19,9.93,1.8,13.29,6.5a9.28,9.28,0,0,1,1.32,8c-3.1,12.21-17.89,15.37-18.52,15.49ZM334.43,354,341,366.7c2.93-.78,13.84-4.32,16.26-13.85a7.27,7.27,0,0,0-1-6.36c-3-4.15-10.08-5.53-11.82-5.67C343.09,341,338.23,347.69,334.43,354Z" transform="translate(-0.72 -1.25)" style="fill:#414142"/><path d="M336.47,361.13s13,3.54,15.93-8.2c2.61-10.3-9.45-13.37-12.15-13.59S329,353.48,329,353.48Z" transform="translate(-0.72 -1.25)" style="fill:#fff"/><path d="M340.75,362.13a18.19,18.19,0,0,1-4.41-.53.5.5,0,0,1-.23-.13l-7.47-7.65a.5.5,0,0,1-.07-.61c8.29-13.91,11.19-14.41,11.73-14.38,1.58.13,8.1,1.51,11.27,5.94a9.58,9.58,0,0,1,1.32,8.27,11.35,11.35,0,0,1-5.21,7.39A13.78,13.78,0,0,1,340.75,362.13Zm-4-1.46c.89.21,6.26,1.34,10.45-1.1a10.39,10.39,0,0,0,4.74-6.77,8.62,8.62,0,0,0-1.17-7.45c-2.94-4.11-9.06-5.4-10.54-5.52h0c-1.52,0-6.49,6.81-10.55,13.57Z" transform="translate(-0.72 -1.25)" style="fill:#414142"/><path d="M331,324s.31,2.27,5.9,4.27,14.19,3.55,14,12.26-9.16,17.2-27.29,17.86,1-26.74,1-26.74Z" transform="translate(-0.72 -1.25)" style="fill:#dedddd"/><path d="M322.9,359.46c-3.62,0-6.08-1.14-7.31-3.4-4-7.37,7.63-24.21,8.13-24.92l6.48-7.72a1,1,0,0,1,1.75.46c0,.11.63,1.86,5.26,3.51.69.25,1.43.49,2.19.74,5.34,1.74,12.65,4.12,12.43,12.49-.33,12.31-14.43,18.33-28.25,18.83Zm7.89-33.65-5.49,6.54c-3.14,4.51-10.8,17.53-8,22.75.91,1.68,3,2.46,6.15,2.35,12.9-.47,26-5.88,26.33-16.89.18-6.88-5.79-8.82-11.05-10.54-.78-.25-1.54-.5-2.25-.76C333.26,328.1,331.62,326.8,330.8,325.8Z" transform="translate(-0.72 -1.25)" style="fill:#414142"/><path d="M325,323.68s.31,2.27,5.9,4.27,14.19,3.55,14,12.26-9.16,17.2-27.29,17.86,1-26.74,1-26.74Z" transform="translate(-0.72 -1.25)" style="fill:#fff"/><path d="M316.9,358.59c-3.42,0-5.74-1.06-6.87-3.14-3.87-7.11,7.61-23.7,8.1-24.4l6.45-7.69a.5.5,0,0,1,.88.24c0,.06.49,2.06,5.58,3.88.7.25,1.44.49,2.21.74,5.48,1.79,12.3,4,12.09,12-.32,12-14.18,17.85-27.77,18.35Zm7.92-34-5.9,7c-.09.13-11.59,16.75-8,23.31,1,1.86,3.24,2.74,6.61,2.61,13.13-.48,26.51-6,26.81-17.37.19-7.25-6-9.26-11.4-11-.78-.25-1.53-.5-2.23-.75C326.88,327.06,325.39,325.55,324.82,324.62Z" transform="translate(-0.72 -1.25)" style="fill:#414142"/><path d="M329.69,379.7c2-.16,13.62.09,18.91-8.57s-4.41-19.61-17.12-16.53S319.65,366,319.65,366Z" transform="translate(-0.72 -1.25)" style="fill:#dedddd"/><path d="M329.69,380.7a1,1,0,0,1-.81-.41l-10-13.71a1,1,0,0,1-.19-.49c0-.09-.82-9.23,12.59-12.47,6.93-1.68,13.81.53,17.53,5.63a10.87,10.87,0,0,1,.68,12.4c-5.13,8.4-15.59,8.86-19,9l-.66,0Zm-9.05-15.06,9.54,13h.17c3.17-.14,12.83-.57,17.41-8.06a8.92,8.92,0,0,0-.59-10.18c-2.46-3.37-8-6.67-15.44-4.86C321.16,358.12,320.63,364.3,320.64,365.64Z" transform="translate(-0.72 -1.25)" style="fill:#414142"/><path d="M323.84,380.45c2-.16,13.62.09,18.91-8.57s-4.41-19.61-17.12-16.53-11.83,11.4-11.83,11.4Z" transform="translate(-0.72 -1.25)" style="fill:#fff"/><path d="M323.84,380.95a.5.5,0,0,1-.4-.2l-10-13.71a.5.5,0,0,1-.09-.24,8.85,8.85,0,0,1,1.21-4.84c1.3-2.34,4.26-5.46,11-7.1s13.41.5,17,5.44a10.38,10.38,0,0,1,.66,11.84c-5,8.18-15.25,8.63-18.62,8.78l-.68,0Zm-9.55-14.39,9.79,13.37.43,0c3.24-.14,13.09-.58,17.81-8.3a9.41,9.41,0,0,0-.61-10.73c-3.36-4.61-9.63-6.59-16-5.05C314.35,358.59,314.23,365.49,314.28,366.56Z" transform="translate(-0.72 -1.25)" style="fill:#414142"/><path d="M179.37,375.83s-1.63,16.36,8.66,25.65,14.91,1.48,18.78-1.89-7.58-31.22-7.58-31.22Z" transform="translate(-0.72 -1.25)" style="fill:#dedddd"/><path d="M196.91,406.87c-2.62,0-5.76-1.22-9.56-4.65-10.54-9.52-9-25.8-9-26.49a1,1,0,0,1,.64-.84l19.86-7.46a1,1,0,0,1,1.28.56c2.75,6.69,11.39,28.78,7.31,32.35-.51.44-1,1-1.61,1.55C203.71,404,200.9,406.87,196.91,406.87Zm-16.59-30.32c-.16,3-.32,16.35,8.37,24.19,8.16,7.36,12.19,3.31,15.74-.26.59-.59,1.15-1.16,1.71-1.65,2-1.75-2.27-16.33-7.48-29.19Z" transform="translate(-0.72 -1.25)" style="fill:#414142"/><path d="M182.19,370.84s-2.2,15.05,8.09,24.34,16.46,3.85,20.33.47S202,363.38,202,363.38Z" transform="translate(-0.72 -1.25)" style="fill:#fff"/><path d="M201,400.83c-3.07,0-6.73-1.36-11.08-5.29-10.37-9.36-8.27-24.63-8.25-24.78a.5.5,0,0,1,.32-.4l19.86-7.46a.5.5,0,0,1,.64.27c1.29,3,12.45,29.33,8.43,32.85C208.64,398,205.44,400.83,201,400.83ZM182.65,371.2c-.23,2.12-1.23,15.31,8,23.61,9.94,9,15.78,3.87,19.64.49,2.6-2.28-3.75-20.2-8.48-31.28Z" transform="translate(-0.72 -1.25)" style="fill:#414142"/><path d="M197.26,383.38s-4,21,6.46,30.28,25.79-1.1,32.53-14-8-36.78-8-36.78Z" transform="translate(-0.72 -1.25)" style="fill:#dedddd"/><path d="M212.92,418.22a14.61,14.61,0,0,1-9.87-3.81c-10.79-9.56-6.94-30.33-6.77-31.21a1,1,0,0,1,.43-.65l31-20.47a1,1,0,0,1,1.4.31c.61,1,15,24.56,8,37.77-4.81,9.19-13.34,16.33-21.21,17.78A16.57,16.57,0,0,1,212.92,418.22ZM198.17,384c-.48,2.93-2.95,20.82,6.21,28.93A12.66,12.66,0,0,0,215.56,416c7.3-1.34,15.25-8.07,19.8-16.74,5.69-10.85-4.91-30.5-7.44-34.9Z" transform="translate(-0.72 -1.25)" style="fill:#414142"/><path d="M198.93,375.07s-4,21,6.46,30.28,25.79-1.1,32.53-14-8-36.78-8-36.78Z" transform="translate(-0.72 -1.25)" style="fill:#fff"/><path d="M214.6,409.4a14.13,14.13,0,0,1-9.55-3.68c-10.58-9.37-6.78-29.88-6.62-30.74a.5.5,0,0,1,.22-.32l31-20.47a.5.5,0,0,1,.7.16A88.56,88.56,0,0,1,236.92,368c3.82,10.21,4.31,18.16,1.44,23.62-4.75,9.06-13.13,16.1-20.86,17.52A16,16,0,0,1,214.6,409.4Zm-15.22-34c-.37,2.18-3.28,21.09,6.33,29.6a13.14,13.14,0,0,0,11.61,3.18c7.44-1.37,15.54-8.2,20.15-17,6-11.52-5.77-32.53-7.71-35.84Z" transform="translate(-0.72 -1.25)" style="fill:#414142"/><path d="M233.17,395.18s-2.7,19.32,11.3,27.9,25.52-5.34,29-11.94S270.89,377,270.89,377Z" transform="translate(-0.72 -1.25)" style="fill:#dedddd"/><path d="M253.43,426.8a18,18,0,0,1-9.48-2.86c-6-3.66-9.9-9.83-11.36-17.84a38.21,38.21,0,0,1-.41-11.05,1,1,0,0,1,.56-.76l37.71-18.19a1,1,0,0,1,1.41.69c.25,1.14,6.1,28,2.49,34.84C272,416,266,424,257.84,426.19A16.63,16.63,0,0,1,253.43,426.8Zm-19.32-31c-.28,3.09-1.12,19,10.89,26.39a15.19,15.19,0,0,0,12.31,2c7.48-2.05,13.12-9.51,15.27-13.59,2.58-4.88-.65-23.86-2.41-32.24Z" transform="translate(-0.72 -1.25)" style="fill:#414142"/><path d="M233.13,389.18s-2.74,16.6,11.26,25.18,25.56-2.62,29-9.21S270.84,371,270.84,371Z" transform="translate(-0.72 -1.25)" style="fill:#fff"/><path d="M254.61,418a19.94,19.94,0,0,1-10.49-3.19c-14.12-8.66-11.52-25.52-11.49-25.69a.5.5,0,0,1,.28-.37l37.71-18.19a.5.5,0,0,1,.71.34c.25,1.13,6.06,27.82,2.53,34.5-2.45,4.64-7.88,10.13-14.5,11.94A17.9,17.9,0,0,1,254.61,418Zm-21-28.46c-.26,2.1-1.55,16.69,11.06,24.42,4.78,2.93,9.64,3.75,14.45,2.43,7.24-2,12.13-8.13,13.88-11.45,3.07-5.82-1.63-29.09-2.49-33.2Z" transform="translate(-0.72 -1.25)" style="fill:#414142"/><path d="M279,399.28s1.57,17.46,16.56,14.79c15.3-2.72,15.64-32.67,15.64-32.67l-26.72,4.42Z" transform="translate(-0.72 -1.25)" style="fill:#dedddd"/><path d="M292.54,415.35a12.61,12.61,0,0,1-7.86-2.55c-5.83-4.45-6.66-13.06-6.7-13.43a1,1,0,0,1,.07-.47l5.48-13.45a1,1,0,0,1,.76-.61L311,380.42a1,1,0,0,1,1.16,1A73.61,73.61,0,0,1,310.07,397c-2.72,10.65-7.68,16.91-14.35,18.09A18.1,18.1,0,0,1,292.54,415.35ZM280,399.43c.17,1.35,1.26,8.26,5.9,11.79,2.51,1.91,5.69,2.54,9.46,1.87,12.62-2.25,14.5-25,14.77-30.5l-25,4.13Z" transform="translate(-0.72 -1.25)" style="fill:#414142"/><path d="M280.09,394.36s2.67,13.64,15.41,13.49,16.79-31.37,16.79-31.37l-26.72,4.42Z" transform="translate(-0.72 -1.25)" style="fill:#fff"/><path d="M295.3,408.36c-12.82,0-15.66-13.76-15.69-13.9a.49.49,0,0,1,0-.28l5.48-13.45a.5.5,0,0,1,.38-.3L312.21,376a.5.5,0,0,1,.58.56c-.17,1.29-4.26,31.65-17.28,31.8Zm-14.68-13.95c.33,1.5,3.23,12.95,14.68,12.95h.21c11.15-.13,15.52-25.76,16.2-30.26l-25.77,4.27Z" transform="translate(-0.72 -1.25)" style="fill:#414142"/><path d="M313.86,385.34s1.56,6.9,7.47,6.83c10-.11,11-16.25,11-16.25l-10.93-8.41Z" transform="translate(-0.72 -1.25)" style="fill:#dedddd"/><path d="M321.25,393.17c-5.25,0-7.76-5-8.36-7.61a1,1,0,0,1,.05-.61l7.53-17.83a1,1,0,0,1,1.53-.4l10.93,8.41a1,1,0,0,1,.39.85c0,.7-1.12,17.07-12,17.19Zm-6.33-7.76c.36,1.23,2,5.76,6.33,5.76h.07c8-.09,9.69-12.13,10-14.79l-9.47-7.29Zm-1.05-.08h0Z" transform="translate(-0.72 -1.25)" style="fill:#414142"/><path d="M313.83,381.9s1.56,6.9,7.47,6.83c10-.11,11-16.25,11-16.25l-10.93-8.41Z" transform="translate(-0.72 -1.25)" style="fill:#fff"/><path d="M321.22,389.23c-6.16,0-7.85-7.15-7.87-7.22a.5.5,0,0,1,0-.3l7.53-17.83a.5.5,0,0,1,.77-.2l10.93,8.41a.5.5,0,0,1,.19.43,31.94,31.94,0,0,1-1.76,8.23c-2,5.51-5.39,8.45-9.73,8.5Zm-6.86-7.29c.26,1,1.9,6.29,6.86,6.29h.08c8.79-.1,10.3-13.47,10.48-15.52l-10.2-7.85Z" transform="translate(-0.72 -1.25)" style="fill:#414142"/><path d="M172.9,339.54s-5.46,10.05-3,24.39,8.71,19.78,14.27,19.68,8.06-6.35,10.24-12.27-.56-32.17-.56-32.17Z" transform="translate(-0.72 -1.25)" style="fill:#dedddd"/><path d="M184,384.61c-8.58,0-13.42-10.57-15.09-20.52-2.44-14.51,2.92-24.61,3.15-25a1,1,0,0,1,.86-.52l20.91-.36a1,1,0,0,1,1,.9c.11,1.08,2.74,26.55.5,32.62-2,5.41-4.73,12.81-11.16,12.92Zm-10.43-44.08a40.87,40.87,0,0,0-2.69,23.23c2.36,14,8.38,19,13.26,18.85,4.69-.08,7-5.31,9.32-11.61,1.61-4.36.41-21.54-.52-30.8Z" transform="translate(-0.72 -1.25)" style="fill:#414142"/><path d="M175.35,327s-5.46,10.05-3,24.39,8.71,19.78,14.27,19.68,8.06-6.35,10.24-12.27-.56-32.17-.56-32.17Z" transform="translate(-0.72 -1.25)" style="fill:#fff"/><path d="M186.41,371.62c-8.27,0-13-10.36-14.6-20.1-2.41-14.34,3-24.61,3.1-24.71a.5.5,0,0,1,.43-.26l20.91-.36a.51.51,0,0,1,.51.45c.11,1.08,2.73,26.43.53,32.39-1.95,5.27-4.61,12.49-10.7,12.59Zm-10.75-44.08a41.09,41.09,0,0,0-2.86,23.81c2.39,14.22,8.58,19.27,13.63,19.27h.13c5-.09,7.39-5.46,9.78-11.94,2-5.32-.19-28-.54-31.49Z" transform="translate(-0.72 -1.25)" style="fill:#414142"/><path d="M191.58,342.72s-5.74,14.07-5.15,26.15,7,17.92,13.44,18.39c6.94.51,17.12-11.41,20.88-20.95s-11.8-37.46-11.8-37.46Z" transform="translate(-0.72 -1.25)" style="fill:#dedddd"/><path d="M200.32,388.28l-.53,0c-6.21-.46-13.71-5.8-14.37-19.34-.59-12.16,5-26,5.23-26.58a1,1,0,0,1,.3-.4l17.36-13.87a1,1,0,0,1,1.5.29c.64,1.16,15.74,28.45,11.86,38.31C218.13,375.67,208.18,388.28,200.32,388.28Zm-7.91-44.94c-.74,1.89-5.52,14.62-5,25.49.6,12.24,7.12,17,12.52,17.44,6.19.44,16.12-10.79,19.87-20.32,1.44-3.65-.11-11.1-4.48-21.54-2.6-6.21-5.5-11.79-6.7-14Z" transform="translate(-0.72 -1.25)" style="fill:#414142"/><path d="M195.78,332.53s-5.46,14.07-4.89,26.15,5.45,18.31,12.81,18.4c5,.06,16.29-11.39,19.86-20.93s-11.27-37.47-11.27-37.47Z" transform="translate(-0.72 -1.25)" style="fill:#fff"/><path d="M203.75,377.58h0c-7.89-.1-12.74-7-13.31-18.88s4.86-26.21,4.92-26.35a.5.5,0,0,1,.15-.2L212,318.3a.51.51,0,0,1,.42-.11.5.5,0,0,1,.35.26c.61,1.15,14.9,28.24,11.29,37.88C220.53,365.7,209.18,377.58,203.75,377.58Zm-7.55-44.75c-.52,1.39-5.34,14.57-4.81,25.82.54,11.46,4.92,17.83,12.32,17.93h0c4.61,0,15.76-11,19.35-20.6,3.18-8.5-8.92-32.56-11-36.51Z" transform="translate(-0.72 -1.25)" style="fill:#414142"/><path d="M257,383.66s-9.1,21.33-20.87,21.27-22.14-15-18.6-36.27,31.08-25.32,31.08-25.32Z" transform="translate(-0.72 -1.25)" style="fill:#dedddd"/><path d="M236.16,405.93h-.06c-4.87,0-9.56-2.42-13.2-6.74-6.1-7.23-8.42-18.42-6.38-30.69,3.63-21.77,31.64-26.1,31.93-26.14a1,1,0,0,1,1.12.79L258,383.45a1,1,0,0,1-.06.6C257.52,384.94,248.43,405.93,236.16,405.93Zm11.66-61.44c-4.76.94-26.29,6.17-29.32,24.33-1.95,11.69.22,22.29,5.93,29.08,3.26,3.87,7.41,6,11.68,6h0c10.26,0,18.66-17.91,19.77-20.38Z" transform="translate(-0.72 -1.25)" style="fill:#414142"/><path d="M257,374.81s-6.82,18.23-18.56,19.42-22.12-12.15-18.57-33.45,30.28-24.72,30.28-24.72Z" transform="translate(-0.72 -1.25)" style="fill:#fff"/><path d="M237,394.8a15.6,15.6,0,0,1-11.44-5.24c-5.93-6.33-8.19-16.85-6.18-28.87,3.57-21.42,30.44-25.1,30.71-25.14a.5.5,0,0,1,.56.41l6.86,38.76a.5.5,0,0,1,0,.26,50.83,50.83,0,0,1-4.93,9.37c-4.24,6.29-9.1,9.87-14,10.37A14.73,14.73,0,0,1,237,394.8Zm12.74-58.18c-3.57.59-26.19,5.1-29.38,24.24-2,11.71.21,21.92,5.93,28a14.46,14.46,0,0,0,12.1,4.85c10.79-1.09,17.47-17.37,18.1-19Z" transform="translate(-0.72 -1.25)" style="fill:#414142"/><path d="M259.51,378.71a56.4,56.4,0,0,0,.37,21.56c2.5,12,11.67,17.44,19.65,14s12.36-22.76,14.41-32.6S259.51,378.71,259.51,378.71Z" transform="translate(-0.72 -1.25)" style="fill:#dedddd"/><path d="M274.7,416.31a13.32,13.32,0,0,1-6.19-1.55c-4.74-2.48-8.24-7.68-9.61-14.29a56.91,56.91,0,0,1-.37-22,1,1,0,0,1,.79-.76c3-.55,29-5.24,34.55.43a4,4,0,0,1,1,3.75c-2.64,12.68-7.06,29.93-15,33.31A13.27,13.27,0,0,1,274.7,416.31Zm-14.34-36.74a57.25,57.25,0,0,0,.5,20.5c1.25,6,4.37,10.72,8.58,12.92a11.15,11.15,0,0,0,9.7.4C287,410,291.5,388.56,293,381.5a2,2,0,0,0-.52-1.94C288.47,375.51,268.56,378.09,260.36,379.57Z" transform="translate(-0.72 -1.25)" style="fill:#414142"/><path d="M259.51,370.17a56.4,56.4,0,0,0,.37,21.56c2.5,12,11.67,17.44,19.65,14s12.36-22.76,14.41-32.6S259.51,370.17,259.51,370.17Z" transform="translate(-0.72 -1.25)" style="fill:#fff"/><path d="M274.7,407.27a12.83,12.83,0,0,1-6-1.49c-4.61-2.41-8-7.49-9.35-13.95a57.49,57.49,0,0,1-.37-21.77.5.5,0,0,1,.4-.38c1.17-.22,28.62-5.29,34.1.29a3.45,3.45,0,0,1,.92,3.3c-2.61,12.57-7,29.66-14.7,33A12.77,12.77,0,0,1,274.7,407.27ZM259.93,370.6a57.28,57.28,0,0,0,.44,21c1.28,6.16,4.5,11,8.83,13.26a11.64,11.64,0,0,0,10.13.42c8.14-3.47,12.64-25.12,14.12-32.24a2.47,2.47,0,0,0-.65-2.4C288,365.77,263.11,370,259.93,370.6Z" transform="translate(-0.72 -1.25)" style="fill:#414142"/><path d="M298.95,373.17s-1.93,26.08,11.51,27.2c12.18,1,11.48-20.46,11.92-32.88s-20.07-8.06-20.07-8.06Z" transform="translate(-0.72 -1.25)" style="fill:#dedddd"/><path d="M311.27,401.41q-.44,0-.9,0c-14.26-1.19-12.5-27.17-12.42-28.27a1,1,0,0,1,0-.16l3.36-13.74a1,1,0,0,1,.76-.74c.52-.11,12.75-2.64,18.43,2.13a8.2,8.2,0,0,1,2.85,6.94c0,1.14-.07,2.36-.1,3.63-.26,10.26-.58,23-6.24,28.09A8.37,8.37,0,0,1,311.27,401.41Zm-11.33-28.08c-.1,1.56-1.35,25.05,10.6,26.05a6.54,6.54,0,0,0,5.16-1.62c5-4.5,5.33-17.3,5.57-26.65,0-1.28.06-2.5.1-3.65a6.23,6.23,0,0,0-2.13-5.34c-4.29-3.6-13.64-2.26-16.12-1.82Z" transform="translate(-0.72 -1.25)" style="fill:#414142"/><path d="M298,366.43s-1.79,25,11.51,27.2c10.37,1.74,11.48-20.46,11.92-32.88s-20.07-8.06-20.07-8.06Z" transform="translate(-0.72 -1.25)" style="fill:#fff"/><path d="M310.67,394.23a7.3,7.3,0,0,1-1.2-.1c-5.66-.95-9.52-6.08-11.15-14.84a57.79,57.79,0,0,1-.77-12.89.46.46,0,0,1,0-.08l3.36-13.74a.5.5,0,0,1,.38-.37c.51-.11,12.5-2.59,18,2a7.73,7.73,0,0,1,2.67,6.54c-.31,8.71-.95,26.83-7.27,32A6.23,6.23,0,0,1,310.67,394.23Zm-12.13-27.72c-.07,1.13-1.36,24.54,11.09,26.63a5.27,5.27,0,0,0,4.43-1.15c6-4.88,6.6-22.69,6.9-31.25a6.77,6.77,0,0,0-2.31-5.74c-4.67-3.92-14.95-2.23-16.85-1.87Z" transform="translate(-0.72 -1.25)" style="fill:#414142"/><path d="M313.86,368.1s1.47,15.47,12.91,15.89,8.74-15.54,7.8-21.1-5.66-13.72-5.66-13.72Z" transform="translate(-0.72 -1.25)" style="fill:#dedddd"/><path d="M327.21,385h-.47c-12.18-.44-13.86-16.63-13.87-16.79a1,1,0,0,1,.21-.72l15.06-18.94a1,1,0,0,1,.86-.37,1,1,0,0,1,.79.5c.2.34,4.81,8.38,5.78,14.06.74,4.39,2.48,14.65-1.85,19.58A8.24,8.24,0,0,1,327.21,385Zm-12.3-16.6c.32,2.32,2.45,14.25,11.91,14.6a6.39,6.39,0,0,0,5.4-2c3.7-4.22,2-14.17,1.38-17.92-.68-4-3.49-9.61-4.82-12.1Z" transform="translate(-0.72 -1.25)" style="fill:#414142"/><path d="M314.76,365.35s.13,12.81,11.58,12.84c8.44,0,5.74-13.11,5.32-18.51S326,346,326,346Z" transform="translate(-0.72 -1.25)" style="fill:#fff"/><path d="M326.36,378.68h0c-11.81,0-12.08-13.2-12.08-13.33a.5.5,0,0,1,.07-.26l11.25-19.39a.5.5,0,0,1,.42-.25.53.53,0,0,1,.43.23c.22.34,5.31,8.49,5.73,14,.05.68.14,1.49.24,2.38.51,4.62,1.29,11.61-1.63,14.86A5.66,5.66,0,0,1,326.36,378.68Zm-11.09-13.21a17.46,17.46,0,0,0,1.46,6.1,9.86,9.86,0,0,0,9.62,6.11h0a4.64,4.64,0,0,0,3.67-1.47c2.62-2.92,1.87-9.64,1.38-14.08-.1-.9-.19-1.72-.25-2.41-.34-4.31-3.9-10.66-5.15-12.78Z" transform="translate(-0.72 -1.25)" style="fill:#414142"/><path d="M173.66,308.39s-3.65,15.67-4.17,23.52.94,11.27,3,11.42c2.26.17,6.31-2.39,9.13-9.16s9.23-33,9.23-33a42.67,42.67,0,0,0-5.86.52C180.38,302.4,174.58,304.16,173.66,308.39Z" transform="translate(-0.72 -1.25)" style="fill:#dedddd"/><path d="M172.7,344.34h-.28c-1.76-.13-4.62-1.92-3.92-12.49.52-7.81,4-22.92,4.19-23.67.82-3.78,5-6.37,12.15-7.49a43.09,43.09,0,0,1,6-.53h0a1,1,0,0,1,1,1.24c-.26,1.08-6.46,26.4-9.28,33.17S175.53,344.34,172.7,344.34Zm16.86-42.14a43.47,43.47,0,0,0-4.42.46c-3.57.56-9.67,2.08-10.51,5.95h0c0,.16-3.64,15.68-4.14,23.36-.53,8,1.13,10.29,2.07,10.36,1.71.11,5.44-2.08,8.13-8.55C183.11,328,188.24,307.54,189.57,302.2Zm-15.9,6.19h0Z" transform="translate(-0.72 -1.25)" style="fill:#414142"/><path d="M177.47,300.37s-3.65,15.67-4.17,23.52.22,10.46,2.26,10.82c1.88.33,7-1.79,9.87-8.56s9.23-33,9.23-33a42.67,42.67,0,0,0-5.86.52C184.19,294.38,178.39,296.13,177.47,300.37Z" transform="translate(-0.72 -1.25)" style="fill:#fff"/><path d="M176,335.25a2.71,2.71,0,0,1-.48,0c-2.5-.44-3.2-3.41-2.67-11.35.51-7.76,4.11-23.29,4.18-23.59,1-4.5,6.92-6.35,11.74-7.11a41.8,41.8,0,0,1,5.94-.52.5.5,0,0,1,.49.62c-.26,1.07-6.45,26.37-9.25,33.1C183.19,332.83,178.32,335.25,176,335.25ZM194,293.65a44,44,0,0,0-5.14.5c-4.51.71-10.06,2.39-10.92,6.34h0c0,.16-3.65,15.72-4.15,23.44-.57,8.66.55,10.07,1.85,10.3,1.61.29,6.58-1.69,9.32-8.26C187.51,319.89,193,297.7,194,293.65Zm-16.55,6.72h0Z" transform="translate(-0.72 -1.25)" style="fill:#414142"/><path d="M185.32,305.17s-2.65,6.54-5.1,19.35,1.65,23.52,9.16,23.39,19.7-13.18,25.05-25.15S185.32,305.17,185.32,305.17Z" transform="translate(-0.72 -1.25)" style="fill:#dedddd"/><path d="M189.24,348.41a8.15,8.15,0,0,1-6.34-3.13c-3.61-4.29-4.83-12.28-3.19-20.85,2.44-12.71,5.1-19.38,5.13-19.44a.49.49,0,0,1,.54-.31c1,.16,24.72,4.12,29.32,12.63a6.11,6.11,0,0,1,.17,5.64c-5.21,11.66-17.48,25.31-25.5,25.45Zm-3.61-42.67a122.14,122.14,0,0,0-4.93,18.88c-1.59,8.29-.45,16,3,20a7.15,7.15,0,0,0,5.7,2.77c6.86-.12,19.05-12.43,24.6-24.86a5.09,5.09,0,0,0-.14-4.76C209.78,310.28,188.81,306.3,185.64,305.73Z" transform="translate(-0.72 -1.25)" style="fill:#414142"/><path d="M190.48,295.8s-2.54,6.54-4.89,19.34.4,23.6,7.62,23.48,20.12-13.26,25.25-25.22S190.48,295.8,190.48,295.8Z" transform="translate(-0.72 -1.25)" style="fill:#fff"/><path d="M193.08,339.12a6.79,6.79,0,0,1-5.36-2.57c-3.33-3.93-4.34-12.17-2.63-21.5,2.33-12.7,4.89-19.37,4.92-19.43a.5.5,0,0,1,.55-.31c1,.16,23.52,4.09,28.11,12.52a6.32,6.32,0,0,1,.24,5.77c-5.36,12.51-18.33,25.4-25.7,25.52Zm-2.28-42.76a126.15,126.15,0,0,0-4.72,18.87c-1.66,9-.74,17,2.41,20.67a5.8,5.8,0,0,0,4.71,2.21c6.91-.12,19.66-12.93,24.8-24.92a5.3,5.3,0,0,0-.2-4.89C213.76,300.9,193.91,296.95,190.8,296.37Z" transform="translate(-0.72 -1.25)" style="fill:#414142"/><path d="M248.6,343.34s-4.13,15.7-.92,31.66,19.87,18.61,28.15,4.74-.7-40.4-.7-40.4Z" transform="translate(-0.72 -1.25)" style="fill:#dedddd"/><path d="M262,389.72a13.88,13.88,0,0,1-2.34-.2c-6.4-1.1-11.35-6.59-12.91-14.33-3.23-16,.76-31.46.93-32.11a1,1,0,0,1,.82-.73l26.54-4a1,1,0,0,1,1.1.67c.37,1.1,9,27.13.61,41.23C273.11,386.25,267.62,389.72,262,389.72Zm-12.54-45.5c-.71,3.07-3.52,16.82-.75,30.57,1.41,7,5.63,11.78,11.29,12.75s11.38-2.23,15-8.33c7.17-12,.85-34.29-.53-38.77Z" transform="translate(-0.72 -1.25)" style="fill:#414142"/><path d="M251.51,333.37s-4.13,15.7-.92,31.66,18.47,20.69,26.75,6.83.7-42.49.7-42.49Z" transform="translate(-0.72 -1.25)" style="fill:#fff"/><path d="M265.16,380.54a12.08,12.08,0,0,1-2-.18c-6.35-1.09-11.33-6.93-13-15.24-3.2-15.88.88-31.73.92-31.88a.5.5,0,0,1,.41-.37l26.54-4a.5.5,0,0,1,.56.37,113.73,113.73,0,0,1,2.77,16.12c1.15,11.9,0,20.9-3.53,26.75C274.52,377.56,270,380.54,265.16,380.54Zm-13.24-46.73c-.55,2.3-3.74,16.7-.83,31.12,1.57,7.78,6.35,13.45,12.19,14.45,5.18.88,10.15-1.95,13.64-7.79,7.53-12.6,1.66-38,.76-41.67Z" transform="translate(-0.72 -1.25)" style="fill:#414142"/><path d="M208.94,328.85s-3.25,17.46-1.73,29.53,6.49,16.55,13,16.11,21.08-8.76,28.37-31.15S208.94,328.85,208.94,328.85Z" transform="translate(-0.72 -1.25)" style="fill:#dedddd"/><path d="M219.38,375.52c-5.23,0-11.42-3.14-13.17-17-1.52-12.08,1.61-29.12,1.74-29.83a1,1,0,0,1,.82-.8c1.26-.21,30.83-5.06,39.31,4.77,2.43,2.82,2.92,6.53,1.46,11-7.25,22.25-21.79,31.34-29.26,31.84C220,375.51,219.69,375.52,219.38,375.52Zm-9.58-45.79c-.57,3.35-2.91,18.1-1.6,28.52s5.35,15.7,12,15.24c5.86-.4,20.29-8.36,27.49-30.47,1.25-3.83.89-6.8-1.08-9.08C239.49,325.72,214.32,329.05,209.8,329.73Z" transform="translate(-0.72 -1.25)" style="fill:#414142"/><path d="M211.74,317.18s-3.25,17.46-1.73,29.53,6.49,16.55,13,16.11,21.08-8.76,28.37-31.15S211.74,317.18,211.74,317.18Z" transform="translate(-0.72 -1.25)" style="fill:#fff"/><path d="M222.2,363.34c-5,0-11-3.05-12.68-16.58-1.51-12,1.71-29.51,1.74-29.68a.5.5,0,0,1,.41-.4c1.24-.21,30.55-5,38.85,4.61,2.31,2.68,2.77,6.22,1.37,10.53-7.17,22-21.48,31-28.81,31.5Zm-10-45.73c-.44,2.51-3,18.11-1.67,29s5.58,16.16,12.49,15.67c7.07-.48,20.91-9.26,27.93-30.81,1.29-4,.89-7.17-1.17-9.56C242.29,313.28,215.54,317.09,212.17,317.62Z" transform="translate(-0.72 -1.25)" style="fill:#414142"/><path d="M275.26,346.42s-.92,25.51,3.72,37.2,21.3,10.08,25.29-4.7a93.84,93.84,0,0,0,2.3-38.19C305.07,330.54,275.26,346.42,275.26,346.42Z" transform="translate(-0.72 -1.25)" style="fill:#dedddd"/><path d="M290,392.33A12.66,12.66,0,0,1,278.05,384c-4.67-11.74-3.83-36.55-3.79-37.6a1,1,0,0,1,.53-.85c2.34-1.25,23.11-12.1,30.29-8.47a4.5,4.5,0,0,1,2.48,3.52,94.36,94.36,0,0,1-2.32,38.6c-2.05,7.59-7.73,12.74-14.47,13.13ZM276.24,347c-.1,3.84-.46,25.82,3.67,36.21a10.73,10.73,0,0,0,10.75,7.06c5.86-.34,10.83-4.91,12.65-11.65a92.36,92.36,0,0,0,2.27-37.78,2.48,2.48,0,0,0-1.41-2C299,336.24,282.75,343.63,276.24,347Z" transform="translate(-0.72 -1.25)" style="fill:#414142"/><path d="M276.41,334.63s-.87,27.79,3.78,39.47,19.08,11.51,23.07-3.26,6-31.72,4.46-41.9S276.41,334.63,276.41,334.63Z" transform="translate(-0.72 -1.25)" style="fill:#fff"/><path d="M291,382.93c-4.87,0-9.16-3.26-11.3-8.65-4.63-11.64-3.85-38.53-3.82-39.67a.5.5,0,0,1,.26-.43c.93-.49,22.76-12,29.83-8.47a4,4,0,0,1,2.22,3.14c1.46,9.89-.34,26.81-4.47,42.1-1.91,7-6.54,11.63-12.08,11.95Zm-14.13-48c-.07,3-.55,28.16,3.75,39,2.07,5.2,6.25,8.27,10.95,8,5.1-.29,9.39-4.59,11.18-11.21,4.1-15.17,5.89-31.93,4.45-41.7a3,3,0,0,0-1.68-2.4C299.33,323.47,279.4,333.63,276.9,334.94Z" transform="translate(-0.72 -1.25)" style="fill:#414142"/><path d="M331.14,334.34s0,10.13.35,20.25-5.73,21.9-14.15,19.93c-8-1.85-11-9.37-14-28.6S331.14,334.34,331.14,334.34Z" transform="translate(-0.72 -1.25)" style="fill:#dedddd"/><path d="M319.17,375.74a9.07,9.07,0,0,1-2.06-.24c-9-2.1-11.92-11.16-14.72-29.42-.69-4.5.31-8,3-10.45,7.44-6.79,25.25-2.45,26-2.27a1,1,0,0,1,.76,1c0,.1,0,10.23.35,20.22.23,7.42-2.74,15.18-7.23,18.86A9.51,9.51,0,0,1,319.17,375.74Zm-.57-41.9c-4.48,0-9.12.74-11.89,3.27-2.17,2-2.94,4.82-2.35,8.66,3,19.63,6.09,26.12,13.2,27.77a7.19,7.19,0,0,0,6.42-1.68c4-3.26,6.71-10.52,6.5-17.25-.26-8.4-.33-16.89-.35-19.48A58.52,58.52,0,0,0,318.61,333.84Z" transform="translate(-0.72 -1.25)" style="fill:#414142"/><path d="M329.52,320.82s0,10.13.35,20.25.14,25.51-8.47,26.44c-8.12.88-16.69-15.87-19.63-35.1S329.52,320.82,329.52,320.82Z" transform="translate(-0.72 -1.25)" style="fill:#fff"/><path d="M320.85,368c-7,0-16.12-13-19.58-35.55-.66-4.32.29-7.69,2.82-10,7.24-6.61,24.8-2.34,25.55-2.15a.5.5,0,0,1,.38.48c0,.1,0,10.24.35,20.24.38,12.06-.29,26-8.92,27A5.62,5.62,0,0,1,320.85,368ZM317,319.83c-4.59,0-9.38.76-12.26,3.39-2.27,2.07-3.12,5.14-2.51,9.11,3.05,19.93,11.6,35.5,19.09,34.68,7.9-.85,8.36-15.21,8-25.93-.28-8.9-.34-17.9-.35-19.87A59,59,0,0,0,317,319.83Z" transform="translate(-0.72 -1.25)" style="fill:#414142"/><path d="M178.25,297.45s6-24.31,14.17-39,18.79-70.17,40.64-94,39.08-35.13,77.32-26.11,61.36,40.24,66.63,46.28S384.36,218,378,242s-36.13,65.65-43.6,83.69c-5.19,12.54-2.9,12.23-2.9,12.23s-23.44,20.5-71.67,11.65S178.39,305.51,178.25,297.45Z" transform="translate(-0.72 -1.25)" style="fill:#9cd8da"/><path d="M283.37,353.34a132,132,0,0,1-23.82-2.26c-48.06-8.81-82.64-44.29-82.81-53.6a1.52,1.52,0,0,1,0-.39c.25-1,6.17-24.67,14.31-39.34,2.61-4.71,5.61-14.12,9.08-25,7.14-22.4,16.91-53.09,31.77-69.31,23-25.15,40.69-35.54,78.77-26.56,35.54,8.38,58.28,35.77,65.75,44.78.68.81,1.23,1.48,1.66,2,7,8,6.56,39,1.31,58.79C375.52,257.24,363,278.36,351.93,297c-6.82,11.49-13.26,22.35-16.14,29.3-3,7.29-3.31,9.79-3.3,10.53a1.5,1.5,0,0,1,0,2.25C331.68,339.78,315.72,353.34,283.37,353.34ZM179.76,297.6c.64,7.37,32.83,41.81,80.34,50.53,24.5,4.49,42.34,1.18,53-2.4a60.51,60.51,0,0,0,16.44-8.15c-.22-1.42.21-4.54,3.48-12.43,3-7.15,9.16-17.59,16.33-29.68,11-18.47,23.38-39.4,27.21-53.82,6.41-24.19,4-50.68-.67-56.05-.44-.51-1-1.2-1.71-2-7.31-8.81-29.58-35.62-64.13-43.77-36.62-8.64-53.64,1.39-75.87,25.67-14.41,15.74-24.07,46.06-31.12,68.19-3.66,11.5-6.56,20.58-9.32,25.56C186.18,272.81,180.37,295.19,179.76,297.6ZM331.3,336.46h0Z" transform="translate(-0.72 -1.25)" style="fill:#414142"/><path d="M343,153.69s2.66-17.8-12.69-39-30-29.66-52.88-26.84c-20.43,2.52-35.74,16.55-42.21,25.94S343,153.69,343,153.69Z" transform="translate(-0.72 -1.25)" style="fill:#fff"/><path d="M343,155.19a1.5,1.5,0,0,1-.39-.05c-.26-.07-26.33-7-52.54-15.22-53.68-16.76-55.66-22.13-56.41-24.15A3,3,0,0,1,234,113c7.37-10.71,23.13-24.1,43.26-26.58,22.71-2.8,37.92,4.9,54.28,27.45,15.53,21.42,13.08,39.32,13,40.07a1.5,1.5,0,0,1-1.48,1.28ZM285.55,88.86a65,65,0,0,0-8,.52c-19.15,2.36-34.14,15.11-41.16,25.3,0,.23.57,2.73,16.15,9.08,8.94,3.64,21.39,8,37,12.87,22.72,7.13,45.65,13.41,52,15.14a44.36,44.36,0,0,0-.74-9.52,65.46,65.46,0,0,0-11.81-26.66C315.49,96.86,302.78,88.86,285.55,88.86Z" transform="translate(-0.72 -1.25)" style="fill:#414142"/><path d="M332.91,160.53s-.39-49.74-34.78-59.88c-33.13-9.77-57.28,12.14-63.75,21.54S332.91,160.53,332.91,160.53Z" transform="translate(-0.72 -1.25)" style="fill:#dedddd"/><path d="M332.91,161.53a1,1,0,0,1-.27,0c-9.75-2.69-95.42-26.59-99.37-37.42a2.59,2.59,0,0,1,.28-2.45c6.54-9.49,30.93-31.94,64.86-21.93,34.7,10.24,35.49,60.33,35.5,60.83a1,1,0,0,1-1,1ZM281.44,99.18c-24.13,0-41,16-46.23,23.58a.61.61,0,0,0,0,.63c2.69,7.38,58.8,25.31,96.71,35.81-.39-7.93-3.86-48.7-34-57.6A57.8,57.8,0,0,0,281.44,99.18Z" transform="translate(-0.72 -1.25)" style="fill:#414142"/><path d="M319.12,142s1.09-24.39-24.48-36.44-54.13-2.15-65.54,8.07a75.62,75.62,0,0,0-16.51,22.4Z" transform="translate(-0.72 -1.25)" style="fill:#fff"/><path d="M319.12,143.52H319l-106.53-6a1.5,1.5,0,0,1-1.28-2.11,76.37,76.37,0,0,1,16.87-22.9c12.15-10.87,41-20.64,67.18-8.31,13.66,6.44,19.83,16.36,22.59,23.56a38.69,38.69,0,0,1,2.75,14.31,1.5,1.5,0,0,1-1.5,1.43Zm-104.17-8.84,102.65,5.76a38.56,38.56,0,0,0-2.57-11.7c-3.75-9.66-10.83-17-21-21.8-24.64-11.61-52.7-2.19-63.9,7.83A74.17,74.17,0,0,0,214.95,134.68Z" transform="translate(-0.72 -1.25)" style="fill:#414142"/><path d="M310,149.56s-.06-32.93-43.47-36c-32.38-2.25-51.92,30.61-51.92,30.61Z" transform="translate(-0.72 -1.25)" style="fill:#dedddd"/><path d="M310,150.56h-.06l-95.39-5.35a1,1,0,0,1-.8-1.51c.2-.33,20.23-33.36,52.84-31.09,43.84,3.05,44.4,36.61,44.4,37a1,1,0,0,1-1,1Zm-93.61-7.25,92.57,5.19c-.42-5.66-4.42-31.25-42.5-33.9C238.87,112.68,220.55,137.1,216.36,143.31Z" transform="translate(-0.72 -1.25)" style="fill:#414142"/><path d="M285.44,134.25s-19.19-11.73-52.14-5.27c-32.09,6.3-41.56,26-45.54,42-4.06,16.39-5.52,39.27,4.55,58.56s17.23,21,17.23,21,10.05-63.09,21.18-86S285.44,134.25,285.44,134.25Z" transform="translate(-0.72 -1.25)" style="fill:#fff"/><path d="M209.55,252a1.5,1.5,0,0,1-.34,0c-.8-.19-8.12-2.4-18.22-21.74-11.48-22-7.86-46.79-4.68-59.61,2.59-10.45,6.7-18.72,12.56-25.29,8-8.95,19.47-14.94,34.14-17.82,33.14-6.5,52.4,5,53.21,5.46a1.5,1.5,0,0,1-.53,2.76c-.43.07-43,7.44-53.61,29.41-10.9,22.48-20.95,85-21,85.61a1.5,1.5,0,0,1-1.48,1.26Zm43.09-123.47a98.85,98.85,0,0,0-19,1.9c-32.25,6.33-40.77,26.37-44.37,40.89-2.48,10-7,35.6,4.43,57.5,6.82,13.07,12.24,17.79,14.75,19.42,1.84-11.14,10.87-63.6,21-84.43,4.79-9.87,15.67-18.1,32.34-24.47a140.4,140.4,0,0,1,19-5.7,61.88,61.88,0,0,0-9.54-3A81.13,81.13,0,0,0,252.64,128.55Z" transform="translate(-0.72 -1.25)" style="fill:#414142"/><path d="M285.9,136s-16.47-10-48,1.51c-51.22,18.65-52.47,78.45-42.4,97.73s20.24,21.37,20.24,21.37,10.05-63.09,21.18-86S285.9,136,285.9,136Z" transform="translate(-0.72 -1.25)" style="fill:#dedddd"/><path d="M215.72,257.58l-.2,0c-.43-.09-10.75-2.4-20.92-21.89-6-11.53-7.8-35.67.75-57.7,5.37-13.85,17.06-32.28,42.2-41.44,31.63-11.52,48.18-1.85,48.87-1.43a1,1,0,0,1-.22,1.81A129.59,129.59,0,0,0,266,145.55c-9.76,5.2-22.58,13.83-28.21,25.43-10.94,22.54-21,85.12-21.09,85.75a1,1,0,0,1-1,.84ZM266.29,133c-7.33,0-16.71,1.3-28.06,5.44-24.44,8.9-35.8,26.82-41,40.28-8.34,21.48-6.65,44.91-.84,56,7.87,15.07,15.81,19.41,18.55,20.51,1.47-9,10.71-63.78,21.08-85.15,5.87-12.09,19.06-21,29.1-26.34a136.47,136.47,0,0,1,18.1-8A46.22,46.22,0,0,0,266.29,133Z" transform="translate(-0.72 -1.25)" style="fill:#414142"/><path d="M251.15,143.43s-10.44-4.58-29.66,14.17c-21.11,20.59-25.12,49.51-34.73,73.71-7,17.63-8.74,24.36-8.74,24.36s13.16,12.52,19.52,16.54,16.77,11.06,16.77,11.06-14.88-52.9,7-94.53C237.49,157.83,251.15,143.43,251.15,143.43Z" transform="translate(-0.72 -1.25)" style="fill:#fff"/><path d="M214.31,284.78a1.5,1.5,0,0,1-.84-.26c-.1-.07-10.46-7.07-16.73-11S177.53,257.28,177,256.76a1.5,1.5,0,0,1-.42-1.46c.07-.28,1.84-7,8.79-24.54,2.52-6.35,4.61-12.9,6.83-19.84,6.12-19.16,12.45-39,28.24-54.38,19.72-19.23,30.85-14.67,31.31-14.47a1.5,1.5,0,0,1,.49,2.41c-.14.14-13.72,14.64-29.63,45-21.3,40.6-7,92.9-6.84,93.43a1.5,1.5,0,0,1-1.44,1.91Zm-34.6-29.57c2.73,2.56,13.27,12.35,18.63,15.74,4.13,2.61,10,6.52,13.6,8.93-2.88-13-10.48-56.6,8-91.83,12.94-24.67,24.13-38.75,28.35-43.67-4.65-.2-13.74,2.57-25.76,14.29-15.26,14.88-21.47,34.34-27.48,53.15-2.13,6.68-4.34,13.59-6.9,20C182.63,245.77,180.39,252.91,179.71,255.21Z" transform="translate(-0.72 -1.25)" style="fill:#414142"/><path d="M258.56,149.56s-28.25.38-46,33.75c-20.17,38-18.17,77.17-18.17,77.17a70.53,70.53,0,0,0,9.43,14.46,139.89,139.89,0,0,0,11.87,11.33s-8.87-55.76,13-97.39C244.91,158,258.56,149.56,258.56,149.56Z" transform="translate(-0.72 -1.25)" style="fill:#dedddd"/><path d="M215.72,287.27a1,1,0,0,1-.65-.24,138.91,138.91,0,0,1-12-11.44,70.77,70.77,0,0,1-9.59-14.69,1,1,0,0,1-.09-.38c0-.39-1.78-39.92,18.28-77.69C221,165.36,233.2,157,241.8,153c9.36-4.31,16.45-4.45,16.75-4.45a1,1,0,0,1,1,.72,1,1,0,0,1-.43,1.13c-.13.08-13.65,8.7-29.51,38.94-21.43,40.86-13,96.21-12.86,96.77a1,1,0,0,1-1,1.16Zm-20.31-27a69.89,69.89,0,0,0,9.19,14,122.43,122.43,0,0,0,9.78,9.5c-1.4-11.62-5.61-59.08,13.42-95.36,11.89-22.67,22.34-33.28,27.26-37.45-8,1.36-28,7.28-41.6,32.81C194.4,219.67,195.3,257.18,195.41,260.23Z" transform="translate(-0.72 -1.25)" style="fill:#414142"/><path d="M231.64,170.6s-18.88,14.29-24.88,44.59c-4.9,24.76,3.45,38.12,3.82,56.75.59,29.75-3.78,34.75-3.78,34.75l24.74,15.69s9.11-13.34,11.38-27.49-11.36-38.35-17.19-60S219.75,188.59,231.64,170.6Z" transform="translate(-0.72 -1.25)" style="fill:#fff"/><path d="M231.54,323.88a1.49,1.49,0,0,1-.8-.23L206,308a1.5,1.5,0,0,1-.33-2.25s4-5.63,3.41-33.74c-.13-6.72-1.31-12.68-2.56-19-2.16-10.88-4.39-22.13-1.23-38.08,6-30.5,24.66-44.89,25.45-45.49a1.5,1.5,0,0,1,2.16,2c-10.26,15.51-12.35,38.51-5.72,63.09,2.09,7.74,5.2,15.85,8.21,23.7,5.41,14.13,10.53,27.47,9,36.9-2.3,14.31-11.24,27.54-11.62,28.1A1.5,1.5,0,0,1,231.54,323.88Zm-22.75-17.7,22.29,14.14c2.23-3.57,8.55-14.44,10.35-25.66,1.39-8.64-3.59-21.61-8.85-35.35a253.25,253.25,0,0,1-8.3-24c-5.69-21.12-5.12-41.18,1.4-56.67-1,1.15-2,2.45-3.1,3.89a82.29,82.29,0,0,0-14.35,32.95c-3,15.36-.87,26.31,1.23,36.91,1.22,6.16,2.48,12.53,2.62,19.52C212.52,294.43,210.15,303.09,208.79,306.17Z" transform="translate(-0.72 -1.25)" style="fill:#414142"/><path d="M237.13,168.33S216.69,191.23,211.87,216c-5.85,30.1,10.75,51.21,12.32,69.78s.48,19.66,1.29,24.2c.75,4.21,6,12.39,6,12.39s9.42-16.56,11.69-30.71-6.18-37.41-12-59S225.24,186.31,237.13,168.33Z" transform="translate(-0.72 -1.25)" style="fill:#dedddd"/><path d="M231.54,323.38a1,1,0,0,1-.84-.46c-.22-.34-5.41-8.4-6.19-12.75a29,29,0,0,1-.37-5.63c0-3.16,0-7.95-.94-18.66-.55-6.47-3-13.42-5.63-20.79-4.92-13.87-10.5-29.59-6.68-49.27,4.81-24.76,25.29-47.93,25.49-48.16a1,1,0,0,1,1.58,1.22c-10.34,15.63-12.45,38.77-5.78,63.5,1.22,4.53,2.58,9.2,3.89,13.72,5.13,17.66,10,34.34,8.14,45.73-2.27,14.16-11.42,30.36-11.81,31a1,1,0,0,1-.84.51Zm-.27-145.95c-6.37,8.83-15.45,23.52-18.41,38.77-3.72,19.14,1.76,34.59,6.6,48.22,2.66,7.49,5.17,14.56,5.74,21.29.92,10.8.93,15.63.94,18.82a27.11,27.11,0,0,0,.34,5.28c.53,2.94,3.49,8.08,5,10.58,2.32-4.36,8.93-17.51,10.76-28.88,1.76-11-3-27.42-8.09-44.86-1.31-4.53-2.67-9.21-3.9-13.76C224.69,212.28,225.13,192.69,231.27,177.43Z" transform="translate(-0.72 -1.25)" style="fill:#414142"/><path d="M330.67,145.15s14.46-13.66,40.34-9.91,43.73,13.84,48.91,33.76,1.47,42.94-3.84,53S330.67,145.15,330.67,145.15Z" transform="translate(-0.72 -1.25)" style="fill:#dedddd"/><path d="M414.36,224.37c-2.79,0-10.85-2.79-46.88-38.77-19.44-19.4-37.73-39.24-37.91-39.44a1.5,1.5,0,0,1,.07-2.11c.61-.58,15.28-14.12,41.58-10.31,28.72,4.16,45.13,15.56,50.15,34.86,5.08,19.51,2,42.83-4,54.12a3,3,0,0,1-2.33,1.58A5.28,5.28,0,0,1,414.36,224.37Zm-81.52-79.08c4.28,4.61,20.69,22.2,37.76,39.2C382.2,196,391.82,205,399.21,211.26c12.87,10.84,15.34,10.17,15.58,10.06,5.52-10.53,8.52-33.4,3.69-52-4.69-18-20.28-28.68-47.68-32.65a53.68,53.68,0,0,0-28.94,3.39A41.63,41.63,0,0,0,332.85,145.29Z" transform="translate(-0.72 -1.25)" style="fill:#414142"/><path d="M330.74,156.63s10.65-11.77,36.37-11.26c29,.58,45,19.49,47.9,39.53,3,20.71-2.78,34.14-8,44.07S330.74,156.63,330.74,156.63Z" transform="translate(-0.72 -1.25)" style="fill:#fff"/><path d="M405.57,230.79c-11.77,0-69-65.92-75.59-73.51a1,1,0,0,1,0-1.32c.45-.49,11.31-12.12,37.13-11.59C399,145,413.36,166.52,416,184.75c2.92,20.17-2.17,33.39-8.1,44.68a2.48,2.48,0,0,1-2,1.34Zm-73.46-74.1c25.47,29.43,65.29,72.11,73.32,72.11h.23a.5.5,0,0,0,.46-.29c5.78-11,10.73-23.85,7.9-43.46-2.53-17.46-16.33-38.06-46.93-38.67C345.57,145.94,334.74,154.33,332.11,156.69Z" transform="translate(-0.72 -1.25)" style="fill:#414142"/><path d="M347.69,156.75s25.49-8.2,48.05,8.84,26.61,49.18,22.26,66.64c-4.5,18.07-18.67,31.71-18.67,31.71Z" transform="translate(-0.72 -1.25)" style="fill:#dedddd"/><path d="M399.34,265.44l-.26,0a1.5,1.5,0,0,1-1.09-.83L346.34,157.4a1.5,1.5,0,0,1,.89-2.08c1.07-.34,26.5-8.23,49.42,9.07,23.1,17.44,27.25,50.38,22.81,68.2C414.91,250.86,401,264.45,400.38,265A1.5,1.5,0,0,1,399.34,265.44ZM349.83,157.73l49.92,103.61c3.68-4,13.3-15.44,16.8-29.48,4.24-17,.3-48.46-21.71-65.08C376.42,152.87,355.78,156.33,349.83,157.73Z" transform="translate(-0.72 -1.25)" style="fill:#414142"/><path d="M347.9,166.82a50.55,50.55,0,0,1,44.83,11.89c34.78,30.64-.53,85.22-.53,85.22Z" transform="translate(-0.72 -1.25)" style="fill:#fff"/><path d="M392.2,264.94h-.07a1,1,0,0,1-.84-.58L347,167.24a1,1,0,0,1,.63-1.38A52,52,0,0,1,393.39,178c14.52,12.79,19,31.85,13.09,55.1A120,120,0,0,1,393,264.48,1,1,0,0,1,392.2,264.94Zm-42.89-97.42,43,94.28c5.37-9.16,30.19-55.51-.26-82.34A50.25,50.25,0,0,0,349.32,167.52Z" transform="translate(-0.72 -1.25)" style="fill:#414142"/><path d="M381.16,190.09s17.36,7.48,22.4,40.67c4.78,31.51-5.12,47.94-16,59.85-11.39,12.46-32.2,23.15-54,23.2s-26.58-5.5-26.58-5.5,51.18-38.24,66.31-58.76S381.16,190.09,381.16,190.09Z" transform="translate(-0.72 -1.25)" style="fill:#dedddd"/><path d="M333.27,315.31c-21.54,0-26.85-5.4-27.39-6a1.5,1.5,0,0,1,.24-2.18c.51-.38,51.17-38.34,66-58.45,14.57-19.75,7.64-57.91,7.57-58.3a1.5,1.5,0,0,1,2.07-1.65c.74.32,18.19,8.19,23.29,41.82,5,32.62-5.5,49.19-16.38,61.09-13.11,14.34-34.73,23.64-55.06,23.69Zm-23.73-7c2.57,1.45,9.19,4,23.74,4h.31c22.22-.06,42.56-11.45,52.86-22.71s20.39-27.24,15.63-58.61c-3.66-24.13-14-34.35-18.92-37.91,1.41,9.93,4.31,39.83-8.62,57.36C360.78,269.09,318.54,301.48,309.54,308.29Z" transform="translate(-0.72 -1.25)" style="fill:#414142"/><path d="M366.57,187.16S393.87,211,396,239.94c3.92,53-53.45,69.48-76.37,68.51-21.74-.92-20.51-2.79-20.51-2.79s51.18-38.24,66.31-58.76S366.57,187.16,366.57,187.16Z" transform="translate(-0.72 -1.25)" style="fill:#fff"/><path d="M321.51,309.49q-1,0-1.91,0c-20.15-.85-21-2.48-21.34-3.18a1.15,1.15,0,0,1,0-1.15,1,1,0,0,1,.24-.25c.51-.38,51.23-38.38,66.11-58.55,14.64-19.85,1.12-58.43,1-58.81a1,1,0,0,1,1.6-1.09c.28.24,27.64,24.46,29.78,53.46,1.31,17.76-4,32.93-15.76,45.08C363.66,303.09,336.19,309.49,321.51,309.49Zm-20.62-3.9c1.72.5,6.38,1.34,18.79,1.86,13.74.59,42.2-5.4,60.13-23.9,11.36-11.72,16.47-26.37,15.2-43.54-1.68-22.7-19.35-42.48-26.31-49.44a124.5,124.5,0,0,1,4,18.63c1.5,11.47,1.59,27.42-6.42,38.29C352.29,266.43,308.76,299.65,300.89,305.59Z" transform="translate(-0.72 -1.25)" style="fill:#414142"/><path d="M380.51,213.19s11.7,22.08,4.6,47.08c-10.44,36.78-34,35-51.51,53.54-13,13.81-16.49,24.81-16.49,24.81s-17.2-5.83-23.72-9.59-17.59-9.7-17.59-9.7,53.75-11.43,80.45-50.12C376.07,240.47,380.51,213.19,380.51,213.19Z" transform="translate(-0.72 -1.25)" style="fill:#dedddd"/><path d="M317.1,340.12a1.5,1.5,0,0,1-.48-.08c-.71-.24-17.42-5.92-24-9.71s-17.44-9.62-17.55-9.68a1.5,1.5,0,0,1,.4-2.79c.53-.11,53.49-11.77,79.53-49.51,19.39-28.1,24-55.14,24-55.41a1.5,1.5,0,0,1,2.81-.46c.49.92,11.9,22.91,4.71,48.2-7,24.81-20.21,32.63-32.93,40.19-6.45,3.83-13.11,7.79-18.93,14-12.57,13.36-16.12,24.13-16.15,24.24a1.51,1.51,0,0,1-1.43,1ZM279.9,319.85c3.81,2.06,10,5.45,14.23,7.89,5.26,3,17.89,7.54,22.08,9,1.4-3.47,5.78-12.78,16.29-23.94,6.11-6.49,13-10.56,19.58-14.49,12.79-7.59,24.86-14.77,31.58-38.43,5.07-17.85.23-34.37-2.66-41.81a161.39,161.39,0,0,1-23.53,52C334.88,302.8,292.73,316.37,279.9,319.85Z" transform="translate(-0.72 -1.25)" style="fill:#414142"/><path d="M379,222.85s.6,32.74-5.72,46.34c-11.5,24.75-27.75,27.95-41,37.24C311.48,321,303.86,328,301.56,327.49c-9.28-2.22-33.3-10.55-33.3-10.55s57.27-14.2,84-52.89C372.06,235.31,379,222.85,379,222.85Z" transform="translate(-0.72 -1.25)" style="fill:#fff"/><path d="M301.84,328.52a2.19,2.19,0,0,1-.51-.06c-9.22-2.21-33.16-10.5-33.4-10.58A1,1,0,0,1,268,316c.57-.14,57.22-14.56,83.39-52.48,19.56-28.35,26.66-41,26.73-41.13a1,1,0,0,1,1.87.47c0,1.35.53,33.13-5.82,46.78-8.84,19-20.27,25.42-31.33,31.6a113.47,113.47,0,0,0-10,6c-7.82,5.49-13.87,10-18.29,13.25C306.8,326.26,303.74,328.52,301.84,328.52ZM271.63,317c6.76,2.31,23,7.77,30.17,9.48,1,.23,5.68-3.25,11.59-7.63,4.43-3.28,10.49-7.77,18.33-13.28a114.6,114.6,0,0,1,10.17-6.15c10.78-6,21.92-12.25,30.49-30.69,4.92-10.58,5.58-33.37,5.64-42.25-3.22,5.37-10.87,17.68-25,38.11C330,298,284,313.39,271.63,317Z" transform="translate(-0.72 -1.25)" style="fill:#414142"/><path d="M367.48,251.59s-4.52,27.22-24.91,42.1-35.45,15.91-53.11,21.88c-27.66,9.36-28.1,20.48-28.1,20.48l-29.83-13.67s9.21-14.38,20.67-23,39.23-7.78,61.09-12.68S357.1,270.49,367.48,251.59Z" transform="translate(-0.72 -1.25)" style="fill:#dedddd"/><path d="M261.36,337.55a1.49,1.49,0,0,1-.62-.14l-29.83-13.67a1.5,1.5,0,0,1-.64-2.17c.38-.6,9.48-14.71,21-23.36,7.65-5.73,21.84-7.41,36.86-9.18,8.35-1,17-2,24.8-3.76,24.85-5.57,44.24-18.1,53.2-34.4a1.5,1.5,0,0,1,2.79,1c-.19,1.14-4.86,28-25.51,43.06C328,306.15,315.86,309.53,303,313.1c-4.22,1.17-8.57,2.38-13,3.89-26,8.79-27.08,19-27.08,19.12a1.5,1.5,0,0,1-1.5,1.44Zm-27.6-15.8,26.59,12.19c1.43-3.87,7-12.47,28.63-19.79,4.53-1.53,8.93-2.76,13.19-3.94,12.62-3.5,24.53-6.81,39.52-17.74,12.66-9.23,19.08-23.54,22.06-32.61-10.62,13.34-28.37,23.46-50.12,28.33A253.6,253.6,0,0,1,288.53,292c-14.61,1.73-28.41,3.36-35.42,8.6C244.09,307.36,236.4,317.93,233.77,321.75Z" transform="translate(-0.72 -1.25)" style="fill:#414142"/><path d="M367.4,246.57s0,21.2-19.88,36.71c-22,17.16-47.23,21.1-67.42,20.91-26.34-.25-28.71,14.64-39.33,17a57.62,57.62,0,0,1-9.23,1.15s9.12-19.4,20.59-28,39.23-7.78,61.09-12.68S357,265.46,367.4,246.57Z" transform="translate(-0.72 -1.25)" style="fill:#fff"/><path d="M231.54,323.38a1,1,0,0,1-.91-1.43c.38-.8,9.36-19.73,20.89-28.37,7.54-5.65,21.67-7.32,36.62-9.08,8.36-1,17-2,24.85-3.77,25-5.6,44.5-18.23,53.52-34.65a1,1,0,0,1,1.88.48c0,.22-.2,21.87-20.27,37.5-18.32,14.27-41.18,21.34-68,21.12C263.4,305,256.53,311.11,251,316c-3.09,2.73-6,5.31-10,6.21a58,58,0,0,1-9.41,1.17Zm134.41-72.51c-10.08,15.06-28.92,26.54-52.52,31.82a252.62,252.62,0,0,1-25.06,3.8c-14.68,1.74-28.54,3.37-35.65,8.7-9.29,7-17.12,21.38-19.52,26.09a53.09,53.09,0,0,0,7.35-1c3.49-.79,6.1-3.09,9.13-5.76,5.72-5,12.82-11.31,29.77-11.31h.66c26.35.25,48.84-6.71,66.79-20.7A50.54,50.54,0,0,0,365.95,250.87Z" transform="translate(-0.72 -1.25)" style="fill:#414142"/><path d="M387.46,173.14c-9.61-1.8-15.77,1-18.16,2.46-10.64-11.79-30.64-30.6-58.92-37.27a118.42,118.42,0,0,0-17-2.83c2.25-15-3.49-17.81-9.52-19s-12.84,3.77-12.4,10.86a17.73,17.73,0,0,0,2.91,8.92c-16.2,3.19-28,13.08-41.32,28.13-14.37,16.3-17.64,37.49-17.32,56.52.43,25.16,15.47,42.83,19.27,57.28,4.26,16.22-3.47,44.12-3.47,44.12s8.2-24.47,28.83-27.26c20-2.71,49.54-2.12,71.36-10.47,25.92-9.91,39.62-24.71,46.28-42.61,6.55-17.6,4.78-37.28,2.39-48.73,4.87,1.08,10.91,1.72,14.18-.6C400.63,188.4,400.08,175.5,387.46,173.14Z" transform="translate(-0.72 -1.25)" style="fill:#9cd8da"/><path d="M231.54,323.88a1.5,1.5,0,0,1-1.45-1.9c.08-.28,7.58-27.71,3.47-43.34-1.27-4.85-3.83-10-6.79-16-5.45-11.06-12.24-24.81-12.53-41.62-.42-24.74,5.36-43.56,17.69-57.54,12.47-14.15,24.16-24.4,40.1-28.17a19.87,19.87,0,0,1-2.07-7.8,11.67,11.67,0,0,1,4-9.55,12.12,12.12,0,0,1,10.19-2.88c6.42,1.24,12.68,4.5,10.93,19.1a122.08,122.08,0,0,1,15.64,2.72c21.3,5,41.11,17.42,58.88,36.84,3-1.53,9.19-3.73,18.13-2h0c6.3,1.18,10.6,5,11.79,10.38,1,4.65-.62,9.42-4.08,11.88-2.7,1.92-7.12,2.35-13.15,1.29,1.74,9.45,3.93,29-2.89,47.35-7.43,20-22.85,34.2-47.14,43.49-15.55,5.95-34.87,7.41-51.91,8.7-7.14.54-13.89,1.05-19.78,1.85-19.48,2.64-27.53,26-27.61,26.25A1.5,1.5,0,0,1,231.54,323.88Zm50.47-206a9.27,9.27,0,0,0-6.07,2.34,8.58,8.58,0,0,0-3,7.11,16.24,16.24,0,0,0,2.66,8.17,1.5,1.5,0,0,1-1,2.31c-16.18,3.19-27.88,13.36-40.48,27.65-11.81,13.4-17.35,31.55-16.94,55.51.28,16.14,6.62,29,12.22,40.35,2.9,5.88,5.65,11.44,7,16.58,2.55,9.72,1,23.26-.8,32.93,4.69-7.22,12.57-15.56,24.51-17.18,6-.81,12.77-1.32,20-1.87,16.84-1.28,35.93-2.72,51.07-8.51,23.44-9,38.29-22.62,45.4-41.73s4-39.89,2.33-47.9a1.5,1.5,0,0,1,1.79-1.77c6.14,1.36,10.75,1.23,13-.36,2.46-1.74,3.64-5.36,2.89-8.79-.92-4.18-4.35-7.13-9.41-8.07h0c-9.19-1.72-15,1-17.11,2.27a1.5,1.5,0,0,1-1.89-.28c-17.56-19.47-37.13-31.85-58.15-36.81a116.14,116.14,0,0,0-16.78-2.8,1.5,1.5,0,0,1-1.35-1.72c2.11-14.06-3-16.25-8.32-17.28A8.28,8.28,0,0,0,282,117.85Z" transform="translate(-0.72 -1.25)" style="fill:#414142"/><path d="M255.71,188.23a25.09,25.09,0,0,0,15.73.67c18.11-4.89,31.38-24.73,20-42.15-9.17-14-31.45-16.4-44.36-6.27C229.41,154.35,237.75,181.36,255.71,188.23Z" transform="translate(-0.72 -1.25)" style="fill:#fff"/><path d="M264.47,190.86a25.34,25.34,0,0,1-9.11-1.69C245.65,185.45,238.3,176,236.64,165a26.3,26.3,0,0,1,9.83-25.29c6.7-5.26,16.25-7.48,25.54-6,8.64,1.43,16,6,20.27,12.47a25.35,25.35,0,0,1,2.65,23.41c-3.67,9.61-12.56,17.37-23.23,20.25A27.69,27.69,0,0,1,264.47,190.86Zm1.73-55.6a30.11,30.11,0,0,0-18.49,6,24.35,24.35,0,0,0-9.09,23.41c1.55,10.28,8.4,19.16,17.45,22.62h0a24,24,0,0,0,15.12.64c10.05-2.72,18.44-10,21.88-19a23.09,23.09,0,0,0-2.45-21.6c-3.94-6-10.83-10.25-18.92-11.59A33.75,33.75,0,0,0,266.2,135.26Z" transform="translate(-0.72 -1.25)" style="fill:#414142"/><circle cx="259.86" cy="145.66" r="8.03" transform="translate(-3.2 3.27) rotate(-0.99)" style="fill:#414142"/><circle cx="258.7" cy="142.27" r="2.41" transform="translate(-3.14 3.25) rotate(-0.99)" style="fill:#fff"/><path d="M307.31,176.12c3.84-4.3,16.88-18.44,41.75-1.56,22.56,15.31,12.34,38.54,4.3,47.19s-25.72,14.31-43.59-.76C290.06,204.37,303.47,180.42,307.31,176.12Z" transform="translate(-0.72 -1.25)" style="fill:#fff"/><path d="M332.83,231.31c-7.25,0-15.45-2.59-23.71-9.56-6.58-5.55-10.2-12.41-10.76-20.39-.82-11.6,5.29-22.65,8.21-25.91,11.42-12.78,25.91-13.36,43.06-1.72,8.32,5.64,13,12.8,14,21.27,1.2,10.58-3.91,21.4-9.52,27.43A29.49,29.49,0,0,1,332.83,231.31ZM327,167.49c-7.09,0-13.44,3.1-19,9.3-1.73,1.94-8.55,12.38-7.7,24.44.52,7.42,3.91,13.81,10.06,19,9.69,8.17,28.94,15.15,42.22.85,3.95-4.25,10.29-14.48,9-25.84-.89-7.87-5.31-14.54-13.12-19.84S333.56,167.49,327,167.49Z" transform="translate(-0.72 -1.25)" style="fill:#414142"/><circle cx="322.67" cy="179.94" r="8.41" transform="translate(-3.78 4.37) rotate(-0.99)" style="fill:#414142"/><circle cx="320.91" cy="176.02" r="2.41" transform="translate(-3.72 4.33) rotate(-0.99)" style="fill:#fff"/><path d="M285.44,135.25h-.17a1,1,0,0,1-.82-1.15c.29-1.76.77-6.78-.54-8.88-.63-1-1.29-1.57-1.84-1.57h0c-.72,0-1.42.86-1.56,1.09a1,1,0,1,1-1.69-1.07,4.29,4.29,0,0,1,3.25-2h0c1.31,0,2.5.85,3.53,2.52,1.94,3.12.93,9.55.81,10.27A1,1,0,0,1,285.44,135.25Z" transform="translate(-0.72 -1.25)" style="fill:#414142"/><path d="M390.55,188.16a1,1,0,0,1-.79-1.61,1.92,1.92,0,0,0,.38-1.52c-.2-.52-1-.94-2.25-1.19-4.65-.92-10.42,1.66-10.48,1.69a1,1,0,0,1-.83-1.82c.26-.12,6.42-2.88,11.69-1.83,2,.4,3.28,1.23,3.74,2.46a3.85,3.85,0,0,1-.68,3.44A1,1,0,0,1,390.55,188.16Z" transform="translate(-0.72 -1.25)" style="fill:#414142"/><path d="M254.06,217.76s-6.23,9.81-7.19,12-2.22,3.52,2.2,6.66,8.9,5.19,10.52,3.89,12.4-13.67,12.21-15.23S254.06,217.76,254.06,217.76Z" transform="translate(-0.72 -1.25)" style="fill:#fff"/><path d="M258.2,241.75c-2.93,0-7.14-2.63-9.73-4.47-4.33-3.08-3.92-4.87-2.82-7.24.09-.2.19-.41.28-.63,1-2.28,7-11.78,7.27-12.18a1,1,0,0,1,1.16-.41c18.14,6,18.33,7.53,18.41,8.18.3,2.45-11.9,15.6-12.57,16.14A3.11,3.11,0,0,1,258.2,241.75ZM254.48,219c-2.23,3.53-6,9.64-6.7,11.24-.1.24-.21.46-.31.68-.77,1.67-1.13,2.43,2.16,4.77,5.49,3.9,8.62,4.48,9.31,3.92,1.69-1.36,10.65-11.86,11.74-14.22C269.16,224.21,261.61,221.33,254.48,219Z" transform="translate(-0.72 -1.25)" style="fill:#414142"/><line x1="250.41" y1="236.67" x2="262.15" y2="219.28" style="fill:#9cd8da"/><path d="M251.12,238.92a1,1,0,0,1-.83-1.56L262,220a1,1,0,1,1,1.66,1.12L252,238.48A1,1,0,0,1,251.12,238.92Z" transform="translate(-0.72 -1.25)" style="fill:#414142"/><path d="M276.51,233.44c5.17.06,9.75-6.32,9.28-11-.7-7-9.17-12.43-13.33-15.26s-14.4-7.25-20.13-2.56-6.35,10.75-3.41,12.64S268.95,233.36,276.51,233.44Z" transform="translate(-0.72 -1.25)" style="fill:#fbb88a"/><path d="M276.58,234.44h-.08c-6.43-.07-18.56-9.21-25.07-14.12-1.41-1.06-2.52-1.9-3.05-2.24A5,5,0,0,1,246.2,214c-.19-3.33,1.91-7.23,5.49-10.16,2.74-2.24,6.72-2.85,11.51-1.75a31,31,0,0,1,9.82,4.25l.56.38c4.37,3,12.49,8.46,13.21,15.61a11.87,11.87,0,0,1-3.33,8.72A9.49,9.49,0,0,1,276.58,234.44Zm-17.83-30.89a8.93,8.93,0,0,0-5.79,1.82c-3.69,3-4.88,6.38-4.76,8.5a3.08,3.08,0,0,0,1.25,2.52c.6.39,1.68,1.2,3.18,2.33,5.88,4.43,18.12,13.66,23.89,13.72h0a7.35,7.35,0,0,0,5.46-2.76,10,10,0,0,0,2.82-7.17c-.62-6.22-8.24-11.38-12.34-14.15l-.56-.38C269.16,206.12,263.62,203.55,258.75,203.55Z" transform="translate(-0.72 -1.25)" style="fill:#414042"/><path d="M263.56,208.79c1.43,3.28,8.25,7.42,12.87,7.21s8.6-5.57,3.41-11.53-14.23-5-15.82-2.8S262.13,205.51,263.56,208.79Z" transform="translate(-0.72 -1.25)" style="fill:#8c7062"/><path d="M276.08,217c-5.13,0-11.94-4.37-13.44-7.82s-1.35-5.47.57-8.11c.85-1.17,3-2,5.62-2.09a14.79,14.79,0,0,1,11.76,4.83c2.55,2.92,3.34,6.17,2.16,8.92a7.18,7.18,0,0,1-6.28,4.26Zm-6.65-16h-.51c-2.4.11-3.76.82-4.09,1.27-1.33,1.83-1.67,3.09-.35,6.13s7.65,6.82,11.91,6.61a5.24,5.24,0,0,0,4.53-3.05c.87-2,.22-4.47-1.83-6.82A12.86,12.86,0,0,0,269.43,201Z" transform="translate(-0.72 -1.25)" style="fill:#414042"/><path d="M183.8,282.51s-10.88,5.35-16.26,11.25-5.89,13.66.25,14.52,16.76-1.26,26.88-13.21" transform="translate(-0.72 -1.25)" style="fill:#9cd8da"/><path d="M170.22,309.94a19.14,19.14,0,0,1-2.64-.17,6.23,6.23,0,0,1-5.3-4.08c-1.3-3.6.37-8.79,4.15-12.93,5.51-6,16.25-11.37,16.71-11.59a1.5,1.5,0,0,1,1.32,2.69c-.11.05-10.69,5.3-15.82,10.92-3,3.29-4.46,7.36-3.54,9.9a3.24,3.24,0,0,0,2.9,2.13c3.1.43,14.1.8,25.52-12.7a1.5,1.5,0,0,1,2.29,1.94C185.6,308.1,175.44,309.94,170.22,309.94Z" transform="translate(-0.72 -1.25)" style="fill:#414142"/><path d="M276.94,334.78a45.89,45.89,0,0,0-5.58,5.68c-5,5.7-12.84,16.68-6,21.85,5.86,4.43,16.77-4.81,20.4-11.25a42.93,42.93,0,0,0,4.59-11" transform="translate(-0.72 -1.25)" style="fill:#9cd8da"/><path d="M269,365a7.4,7.4,0,0,1-4.55-1.46,7.87,7.87,0,0,1-3.22-5.67c-.64-6.32,5.37-14.22,9-18.36a46.88,46.88,0,0,1,5.81-5.89,1.5,1.5,0,0,1,1.81,2.39,46.51,46.51,0,0,0-5.36,5.48c-2.67,3-8.82,10.7-8.28,16.08a4.92,4.92,0,0,0,2,3.58,5,5,0,0,0,4.2.69c5-1,11.4-6.89,14-11.49a42.15,42.15,0,0,0,4.43-10.59,1.5,1.5,0,0,1,2.94.62,44.14,44.14,0,0,1-4.75,11.44c-3,5.24-9.91,11.69-16,13A10.19,10.19,0,0,1,269,365Z" transform="translate(-0.72 -1.25)" style="fill:#414142"/></svg>